<svg width="151" height="40" viewBox="0 0 151 40" fill="none" xmlns="http://www.w3.org/2000/svg">
<path d="M28.4962 0L0.727905 23.1397H19.4776L11.9758 39.9763L39.9894 16.9908H20.4612L28.4962 0Z" fill="#728095"/>
<path d="M28.4961 0L15.9532 18.6819L34.5902 18.6819L11.9757 39.9763L39.9893 16.9908L20.4611 16.9908L28.4961 0Z" fill="#4B5567"/>
<path d="M28.4962 0L0.727905 23.1397H19.4776L11.9758 39.9763L23.8921 21.4486H6.27195L28.4962 0Z" fill="#A1AEBF"/>
<path d="M106.765 28.3402C105.529 28.3402 104.395 28.2311 103.362 28.0129C102.33 27.7803 101.392 27.4749 100.548 27.0968C99.7195 26.7041 98.9633 26.2606 98.2798 25.7661L99.9813 22.7995C101.174 23.6429 102.374 24.261 103.581 24.6536C104.788 25.0317 105.944 25.2208 107.049 25.2208C107.529 25.2208 108.031 25.1772 108.554 25.0899C109.078 24.9881 109.514 24.8209 109.863 24.5882C110.226 24.341 110.408 24.0065 110.408 23.5848C110.408 23.3375 110.321 23.134 110.146 22.974C109.987 22.7995 109.761 22.6613 109.47 22.5595C109.179 22.4577 108.838 22.3777 108.445 22.3196C108.067 22.2469 107.652 22.196 107.202 22.1669C106.765 22.1233 106.322 22.0796 105.871 22.036C104.853 21.9342 103.93 21.767 103.101 21.5343C102.272 21.3016 101.559 21.0035 100.963 20.6399C100.381 20.2618 99.9304 19.8037 99.6105 19.2657C99.2905 18.7276 99.1306 18.1095 99.1306 17.4115C99.1306 16.6262 99.3196 15.9282 99.6977 15.3174C100.09 14.7066 100.636 14.1976 101.334 13.7904C102.032 13.3687 102.832 13.0488 103.733 12.8306C104.649 12.6125 105.631 12.5034 106.678 12.5034C107.769 12.5034 108.75 12.6052 109.623 12.8088C110.51 12.9979 111.288 13.2596 111.957 13.5941C112.641 13.9286 113.208 14.2921 113.658 14.6848L111.87 17.2588C111.419 16.9243 110.895 16.6407 110.299 16.4081C109.717 16.1608 109.099 15.9718 108.445 15.8409C107.805 15.71 107.165 15.6446 106.525 15.6446C105.871 15.6446 105.282 15.7028 104.759 15.8191C104.25 15.9209 103.842 16.0809 103.537 16.299C103.246 16.5026 103.101 16.7716 103.101 17.1061C103.101 17.4115 103.224 17.666 103.472 17.8696C103.733 18.0586 104.068 18.2113 104.475 18.3277C104.882 18.4295 105.333 18.5095 105.827 18.5676C106.322 18.6258 106.802 18.684 107.267 18.7421C108.14 18.8294 108.998 18.9457 109.841 19.0911C110.685 19.222 111.441 19.4402 112.11 19.7456C112.793 20.0364 113.339 20.4581 113.746 21.0108C114.153 21.5488 114.357 22.2832 114.357 23.2139C114.357 24.2901 114.029 25.2135 113.375 25.9843C112.72 26.7405 111.819 27.3222 110.67 27.7294C109.536 28.1366 108.234 28.3402 106.765 28.3402Z" fill="#0D0E14"/>
<path d="M138.914 28.2992V24.9808H143.015V16.1245H138.914L138.841 12.9251H150.846V16.1245H146.723V24.9808H150.846V28.2992H138.914Z" fill="#0D0E14"/>
<path d="M45.5652 25.7931L45.6064 28.2992H60.985L60.9439 24.9642H51.3426L60.7039 15.4316V12.9251H47.0545V16.4351H54.7736L45.5652 25.7931Z" fill="#0D0E14"/>
<path d="M64.0754 28.2992V12.9251H77.7744V16.0154H67.6747V18.8512H76.7928V21.8615H67.6747V25.0951H77.9925V28.2992H64.0754Z" fill="#0D0E14"/>
<path d="M129.487 28.2529C127.858 28.2529 126.441 27.933 125.234 27.2931C124.027 26.6532 123.089 25.7734 122.42 24.6536C121.751 23.5339 121.416 22.1669 121.416 20.7272V12.9251H125.168V20.7272C125.168 26.0001 133.915 26.0001 133.915 20.7272V12.9251H137.536V20.7272C137.536 22.1669 137.202 23.5339 136.533 24.6536C135.864 25.7734 134.926 26.6532 133.719 27.2931C132.512 27.933 131.101 28.2529 129.487 28.2529Z" fill="#0D0E14"/>
<path d="M80.6817 20.7272V12.9251H84.4337V20.7272C84.4337 26.1743 93.1809 26.1743 93.1809 20.7272V12.9251H96.802V20.7272C96.802 30.8843 80.6817 30.8162 80.6817 20.7272Z" fill="#0D0E14"/>
</svg>
