<svg width="151" height="40" viewBox="0 0 151 40" fill="none" xmlns="http://www.w3.org/2000/svg">
<path d="M35.9609 14.6332C36.3627 14.6332 36.4966 14.7773 36.4966 15.1654V23.9472H41.0391C41.4297 23.9472 41.5748 24.0914 41.5748 24.4795V25.2556C41.5748 25.6437 41.4297 25.7879 41.0391 25.7879H35.0569C34.6663 25.7879 34.51 25.6437 34.51 25.2556V15.1654C34.51 14.7773 34.6663 14.6332 35.0569 14.6332H35.9609Z" fill="#0D0E14"/>
<path d="M45.5369 18.503C45.5369 15.9416 47.1663 14.4004 50.0012 14.4004C52.836 14.4004 54.4655 15.9416 54.4655 18.503V21.9182C54.4655 24.4795 52.8249 26.0208 50.0012 26.0208C47.1775 26.0208 45.5369 24.4795 45.5369 21.9182V18.503ZM52.5905 18.503C52.5905 17.0615 51.6865 16.2854 50.057 16.2854C48.4275 16.2854 47.5347 17.0726 47.5347 18.503V21.9403C47.5347 23.3929 48.4275 24.158 50.057 24.158C51.6865 24.158 52.5905 23.3596 52.5905 21.9403V18.503Z" fill="#0D0E14"/>
<path d="M67.7582 19.6784C68.1935 19.6784 68.294 19.8225 68.294 20.2106V22.3174C68.3058 22.8136 68.2057 23.3062 68.001 23.7589C67.7962 24.2118 67.4922 24.6133 67.1109 24.9342C66.1641 25.6832 64.9704 26.0547 63.7627 25.9765C60.872 25.9765 59.2983 24.4352 59.2983 21.8738V18.4365C59.2983 15.9084 60.9278 14.3561 63.7627 14.3561C65.9948 14.3561 67.4457 15.232 68.0596 16.984C68.094 17.0498 68.1124 17.1227 68.1134 17.1968C68.1144 17.2709 68.098 17.3443 68.0655 17.411C68.033 17.4777 67.9853 17.5361 67.9261 17.5813C67.867 17.6264 67.798 17.6574 67.7248 17.6714L66.8542 17.9708C66.4748 18.1039 66.3185 18.0263 66.1846 17.6382C65.9996 17.1646 65.6611 16.7656 65.2225 16.5046C64.7839 16.2436 64.2703 16.1352 63.7627 16.1967C62.122 16.1967 61.2292 16.984 61.2292 18.4143V21.9404C61.2292 23.3929 62.1332 24.158 63.7627 24.158C65.3922 24.158 66.3966 23.4151 66.3966 22.3285V21.5079H63.9747C63.5729 21.5079 63.4278 21.3527 63.4278 20.9646V20.2106C63.4278 19.8225 63.5729 19.6784 63.9747 19.6784H67.7582Z" fill="#0D0E14"/>
<path d="M72.9033 18.503C72.9033 15.9416 74.5328 14.4004 77.3677 14.4004C80.2025 14.4004 81.832 15.9416 81.832 18.503V21.9182C81.832 24.4795 80.1913 26.0208 77.3677 26.0208C74.544 26.0208 72.9033 24.4795 72.9033 21.9182V18.503ZM79.9458 18.503C79.9458 17.0615 79.0418 16.2854 77.4235 16.2854C75.8051 16.2854 74.89 17.0726 74.89 18.503V21.9403C74.89 23.3929 75.794 24.158 77.4235 24.158C79.0529 24.158 79.9458 23.3596 79.9458 21.9403V18.503Z" fill="#0D0E14"/>
<path d="M87.0886 14.9547C87.0886 14.7108 87.1667 14.6332 87.4122 14.6332H87.9256C88.1712 14.6332 88.227 14.7108 88.227 14.9547V25.4663C88.227 25.7102 88.227 25.7879 87.9256 25.7879H87.4122C87.1667 25.7879 87.0886 25.7102 87.0886 25.4663V14.9547Z" fill="#0D0E14"/>
<path d="M98.3945 14.6332C99.324 14.6332 100.215 15 100.873 15.653C101.53 16.3058 101.899 17.1914 101.899 18.1149C101.899 19.0383 101.53 19.9239 100.873 20.5768C100.215 21.2297 99.324 21.5965 98.3945 21.5965H95.0462V25.4663C95.0462 25.7102 94.9904 25.7879 94.7561 25.7879H94.2315C93.9971 25.7879 93.9078 25.7102 93.9078 25.4663V14.9547C93.9078 14.7108 93.9971 14.6332 94.2315 14.6332H98.3945ZM98.294 20.4988C98.6136 20.4988 98.93 20.4363 99.2252 20.3149C99.5203 20.1933 99.7886 20.0153 100.014 19.7908C100.24 19.5664 100.42 19.2998 100.542 19.0067C100.664 18.7134 100.727 18.399 100.727 18.0816C100.727 17.7641 100.664 17.4498 100.542 17.1565C100.42 16.8633 100.24 16.5968 100.014 16.3724C99.7886 16.1479 99.5203 15.9699 99.2252 15.8483C98.93 15.7269 98.6136 15.6644 98.294 15.6644H94.9458V20.4988H98.294Z" fill="#0D0E14"/>
<path d="M110.616 14.4115C111.477 14.317 112.347 14.5012 113.095 14.9366C113.842 15.3722 114.429 16.0357 114.768 16.8287C114.857 17.0061 114.768 17.1503 114.589 17.239L114.098 17.4607C113.897 17.5383 113.819 17.5273 113.696 17.3166C113.443 16.728 113.008 16.2346 112.455 15.9077C111.901 15.5808 111.257 15.4374 110.616 15.4981C108.73 15.4981 107.703 16.241 107.703 17.5716C107.692 17.9782 107.829 18.3752 108.09 18.689C108.35 19.0028 108.716 19.2124 109.12 19.2792C109.72 19.4737 110.343 19.5929 110.973 19.634C111.735 19.6744 112.488 19.8276 113.205 20.0886C113.755 20.2615 114.228 20.617 114.545 21.0955C114.862 21.5741 115.004 22.1465 114.946 22.7165C114.946 24.79 113.428 26.043 110.638 26.043C109.723 26.147 108.799 25.9363 108.022 25.446C107.244 24.9558 106.658 24.2154 106.363 23.3485C106.344 23.3091 106.333 23.2657 106.332 23.2216C106.331 23.1774 106.34 23.1338 106.358 23.0935C106.376 23.0533 106.403 23.0174 106.437 22.9887C106.471 22.9599 106.51 22.9389 106.553 22.9272L107.044 22.7498C107.083 22.734 107.124 22.7265 107.166 22.7276C107.208 22.7287 107.249 22.7385 107.287 22.7562C107.325 22.7739 107.358 22.7992 107.386 22.8306C107.413 22.862 107.434 22.8986 107.446 22.9383C107.696 23.5646 108.14 24.0958 108.714 24.4547C109.287 24.8135 109.962 24.9815 110.638 24.9341C112.747 24.9341 113.785 24.2023 113.785 22.7165C113.805 22.326 113.685 21.9411 113.445 21.6304C113.206 21.3198 112.864 21.1035 112.48 21.02C111.902 20.8489 111.307 20.7447 110.705 20.7096L109.5 20.5543C109.122 20.4748 108.75 20.3748 108.384 20.2549C108.022 20.1464 107.684 19.9694 107.39 19.7338C107.094 19.4675 106.861 19.1397 106.706 18.7737C106.552 18.4077 106.481 18.0125 106.497 17.616C106.575 15.6755 108.038 14.4115 110.616 14.4115Z" fill="#0D0E14"/>
<path d="M120.962 21.9957C121.009 22.7799 121.356 23.5165 121.932 24.055C122.508 24.5936 123.269 24.8934 124.059 24.8934C124.849 24.8934 125.61 24.5936 126.186 24.055C126.762 23.5165 127.108 22.7799 127.156 21.9957V14.9547C127.156 14.7108 127.234 14.6332 127.48 14.6332H127.993C128.239 14.6332 128.317 14.7108 128.317 14.9547V21.9846C128.317 24.5016 126.821 26.0207 124.064 26.0207C121.308 26.0207 119.812 24.5016 119.812 21.9846V14.9547C119.812 14.7108 119.89 14.6332 120.125 14.6332H120.649C120.884 14.6332 120.962 14.7108 120.962 14.9547V21.9957Z" fill="#0D0E14"/>
<path d="M143.719 14.6332C143.964 14.6332 144.042 14.7109 144.042 14.9548V25.4664C144.042 25.7103 143.964 25.7879 143.719 25.7879H143.25C143.016 25.7879 142.937 25.7103 142.937 25.4664V19.0685C142.937 18.1377 143.001 17.2078 143.127 16.2854H143.06C142.712 17.1288 142.305 17.9476 141.844 18.7359L139.444 22.9383C139.415 23.0112 139.364 23.0735 139.298 23.1171C139.232 23.1606 139.155 23.1833 139.076 23.1822H138.763C138.683 23.1826 138.605 23.1597 138.537 23.1165C138.47 23.0731 138.416 23.0112 138.384 22.9383L135.951 18.6915C135.519 17.9146 135.146 17.1066 134.835 16.2743H134.768C134.882 17.2051 134.942 18.1419 134.946 19.0796V25.4664C134.946 25.7103 134.868 25.7879 134.623 25.7879H134.187C133.942 25.7879 133.864 25.7103 133.864 25.4664V14.9548C133.864 14.7109 133.942 14.6332 134.187 14.6332H134.589C134.681 14.6248 134.773 14.6447 134.852 14.6903C134.933 14.736 134.996 14.8052 135.036 14.8883L138.942 21.7851L142.826 14.9548C142.949 14.7219 143.016 14.6887 143.261 14.6887L143.719 14.6332Z" fill="#0D0E14"/>
<path d="M16.1058 24.1027V32.1194C16.1058 32.4268 15.9829 32.7215 15.7642 32.9387C15.5456 33.156 15.2489 33.2781 14.9395 33.2781C14.6303 33.2781 14.3336 33.156 14.1148 32.9387C13.8961 32.7215 13.7732 32.4268 13.7732 32.1194V24.1137C14.098 24.3494 14.4873 24.4809 14.8893 24.4907C15.3275 24.5032 15.7568 24.3662 16.1058 24.1027ZM26.039 21.7852C25.743 21.7852 25.459 21.9021 25.2498 22.11C25.0405 22.3179 24.9229 22.6 24.9229 22.894V24.2912C24.9229 24.5985 25.0458 24.8932 25.2645 25.1105C25.4831 25.3278 25.7798 25.4499 26.0892 25.4499C26.3986 25.4499 26.6952 25.3278 26.9139 25.1105C27.1326 24.8932 27.2555 24.5985 27.2555 24.2912V22.9495C27.2642 22.7905 27.2383 22.6315 27.1796 22.4833C27.1209 22.3352 27.0308 22.2013 26.9153 22.0908C26.7999 21.9804 26.6618 21.8959 26.5107 21.8431C26.3595 21.7904 26.1986 21.7707 26.039 21.7852ZM11.2397 27.1408C10.8381 27.1288 10.4493 26.9976 10.1236 26.7638V34.8027C10.1236 35.1115 10.2471 35.4077 10.4669 35.626C10.6866 35.8443 10.9847 35.967 11.2955 35.967C11.6063 35.967 11.9044 35.8443 12.1242 35.626C12.3439 35.4077 12.4674 35.1115 12.4674 34.8027V26.8193C12.1029 27.0533 11.6729 27.166 11.2397 27.1408ZM22.4005 19.3791C22.2493 19.3716 22.0982 19.3947 21.9562 19.4471C21.8144 19.4994 21.6847 19.5799 21.575 19.6836C21.4654 19.7874 21.3782 19.9121 21.3186 20.0504C21.2591 20.1887 21.2284 20.3376 21.2286 20.4879V26.664C21.2286 26.9728 21.3521 27.269 21.5718 27.4873C21.7917 27.7056 22.0897 27.8283 22.4005 27.8283C22.7114 27.8283 23.0095 27.7056 23.2292 27.4873C23.449 27.269 23.5724 26.9728 23.5724 26.664V20.5655C23.5813 20.4055 23.5552 20.2455 23.4959 20.0965C23.4365 19.9475 23.3454 19.813 23.2287 19.7023C23.1119 19.5917 22.9725 19.5074 22.82 19.4555C22.6674 19.4035 22.5052 19.385 22.3447 19.4013L22.4005 19.3791ZM18.6951 21.752C18.2747 21.7491 17.8656 21.6175 17.5232 21.375V29.4361C17.5232 29.7449 17.6467 30.041 17.8664 30.2594C18.0863 30.4777 18.3843 30.6003 18.6951 30.6003C19.006 30.6003 19.304 30.4777 19.5238 30.2594C19.7436 30.041 19.867 29.7449 19.867 29.4361V21.3861C19.513 21.6481 19.0807 21.7847 18.6393 21.7741L18.6951 21.752ZM8.7062 27.9281V5.40803C8.70326 5.13352 8.59143 4.87126 8.395 4.67818C8.19857 4.48511 7.9334 4.37682 7.65708 4.37683H7.41154C7.13522 4.37682 6.87005 4.48511 6.67362 4.67818C6.47719 4.87126 6.36536 5.13352 6.36243 5.40803V27.9281C6.36243 28.2045 6.47296 28.4696 6.66971 28.6651C6.86645 28.8606 7.1333 28.9704 7.41154 28.9704H7.65708C7.93533 28.9704 8.20218 28.8606 8.39892 28.6651C8.59567 28.4696 8.7062 28.2045 8.7062 27.9281ZM11.3625 26.287H11.1169C10.8387 26.287 10.5718 26.1772 10.3751 25.9818C10.1784 25.7863 10.0678 25.5212 10.0678 25.2447V8.09136C10.0708 7.81686 10.1826 7.55459 10.379 7.36152C10.5754 7.16844 10.8406 7.06015 11.1169 7.06016H11.3625C11.6388 7.06015 11.904 7.16844 12.1004 7.36152C12.2968 7.55459 12.4087 7.81686 12.4116 8.09136V25.2669C12.4116 25.5433 12.3011 25.8085 12.1043 26.0039C11.9076 26.1994 11.6407 26.3092 11.3625 26.3092V26.287ZM15.0567 23.648H14.8C14.5248 23.648 14.2607 23.5394 14.0661 23.346C13.8714 23.1526 13.7621 22.8904 13.7621 22.6168V10.7525C13.7606 10.6162 13.7864 10.4809 13.8378 10.3545C13.8893 10.2281 13.9655 10.1131 14.0621 10.0162C14.1586 9.91925 14.2736 9.84229 14.4002 9.78978C14.5269 9.73727 14.6627 9.71022 14.8 9.71023H15.0567C15.333 9.71316 15.597 9.82425 15.7913 10.0194C15.9857 10.2146 16.0947 10.478 16.0947 10.7525V22.6168C16.0947 22.8904 15.9853 23.1526 15.7906 23.346C15.596 23.5394 15.332 23.648 15.0567 23.648ZM18.7509 20.9314H18.5166C18.2402 20.9314 17.975 20.8232 17.7786 20.6301C17.5822 20.437 17.4703 20.1748 17.4674 19.9002V13.5135C17.4583 13.3711 17.4786 13.2284 17.5273 13.0941C17.5758 12.9599 17.6517 12.837 17.75 12.7331C17.8484 12.6291 17.9671 12.5464 18.099 12.4898C18.2308 12.4334 18.3729 12.4043 18.5166 12.4047H18.7621C19.0403 12.4047 19.3072 12.5144 19.504 12.7099C19.7007 12.9054 19.8112 13.1705 19.8112 13.4469V19.8781C19.8127 20.0159 19.7867 20.1526 19.7345 20.2803C19.6825 20.4081 19.6055 20.5243 19.5079 20.6223C19.4103 20.7202 19.2942 20.7979 19.1661 20.8511C19.0381 20.9042 18.9008 20.9314 18.7621 20.9314H18.7509ZM22.4563 18.5475H22.2108C21.9326 18.5475 21.6657 18.4377 21.4689 18.2422C21.2722 18.0468 21.1617 17.7816 21.1617 17.5052V15.8531C21.1646 15.5785 21.2764 15.3163 21.4728 15.1232C21.6693 14.9301 21.9345 14.8219 22.2108 14.8219H22.4563C22.7327 14.8219 22.9979 14.9301 23.1943 15.1232C23.3907 15.3163 23.5026 15.5785 23.5055 15.8531V17.5052C23.5055 17.7797 23.3965 18.0432 23.2021 18.2384C23.0078 18.4335 22.7438 18.5446 22.4675 18.5475H22.4563Z" fill="#0D0E14"/>
</svg>
