<svg width="151" height="40" viewBox="0 0 151 40" fill="none" xmlns="http://www.w3.org/2000/svg">
<path d="M51.1024 28.8054C50.4261 28.8424 49.7573 28.6491 49.2038 28.2569C48.9725 28.0845 48.7864 27.8581 48.6616 27.5973C48.5368 27.3364 48.4771 27.049 48.4875 26.7597V16.1654C48.4821 16.1206 48.4867 16.075 48.5014 16.0323C48.516 15.9896 48.5401 15.9508 48.5719 15.9188C48.6037 15.8868 48.6423 15.8626 48.6848 15.848C48.7273 15.8332 48.7727 15.8285 48.8172 15.834H50.7272C50.9432 15.834 51.0455 15.9483 51.0455 16.1654V25.9369C51.0455 26.3712 51.2388 26.5883 51.6367 26.5883C51.8054 26.5953 51.9741 26.5761 52.1369 26.5312C52.3643 26.5312 52.4893 26.5997 52.5007 26.8054L52.6712 28.234C52.6794 28.2757 52.6786 28.3186 52.669 28.36C52.6593 28.4012 52.6409 28.4401 52.615 28.4736C52.5892 28.5072 52.5564 28.5348 52.5191 28.5546C52.4817 28.5744 52.4406 28.5859 52.3984 28.5883C51.98 28.7273 51.5429 28.8005 51.1024 28.8054Z" fill="#0D0E14"/>
<path d="M61.8459 27.5826C60.8862 28.3797 59.6801 28.8157 58.4352 28.8157C57.1903 28.8157 55.9843 28.3797 55.0246 27.5826C54.1811 26.7266 53.7079 25.5703 53.7079 24.3654C53.7079 23.1605 54.1811 22.0043 55.0246 21.1483C55.9862 20.3552 57.1915 19.9219 58.4352 19.9219C59.679 19.9219 60.8843 20.3552 61.8459 21.1483C62.67 22.0122 63.1301 23.1628 63.1301 24.3597C63.1301 25.5566 62.67 26.7072 61.8459 27.5711V27.5826ZM56.8209 26.074C57.2663 26.4796 57.8456 26.7042 58.4466 26.7042C59.0475 26.7042 59.627 26.4796 60.0723 26.074C60.4755 25.6082 60.6974 25.0115 60.6974 24.394C60.6974 23.7766 60.4755 23.1799 60.0723 22.714C59.627 22.3085 59.0475 22.0838 58.4466 22.0838C57.8456 22.0838 57.2663 22.3085 56.8209 22.714C56.4178 23.1799 56.1958 23.7766 56.1958 24.394C56.1958 25.0115 56.4178 25.6082 56.8209 26.074Z" fill="#0D0E14"/>
<path d="M73.6466 20.2111C73.8626 20.2111 73.965 20.3254 73.965 20.5426V28.7368C73.9849 29.29 73.8819 29.8405 73.6636 30.3485C73.4453 30.8566 73.1172 31.3094 72.703 31.674C71.7837 32.462 70.6016 32.8703 69.3947 32.8168C68.3047 32.8554 67.2291 32.5562 66.3138 31.9597C65.9229 31.7018 65.589 31.3656 65.3329 30.9725C65.0766 30.5792 64.9036 30.1373 64.8245 29.674C64.8245 29.4454 64.8245 29.3426 65.1314 29.3426H67.0414C67.1224 29.3453 67.2011 29.3717 67.2676 29.4183C67.3342 29.465 67.386 29.5299 67.4165 29.6054C67.5405 29.9525 67.7874 30.2415 68.11 30.4168C68.5033 30.6208 68.941 30.723 69.3833 30.714C69.6503 30.7287 69.9174 30.6898 70.1693 30.5995C70.4211 30.5093 70.6524 30.3694 70.8499 30.1883C71.0303 29.9988 71.1706 29.7744 71.2625 29.529C71.3543 29.2835 71.3957 29.0218 71.3842 28.7597V28.0397C70.7004 28.5453 69.8681 28.8068 69.0195 28.7826C68.4256 28.8043 67.8335 28.7052 67.2786 28.4911C66.7238 28.277 66.2178 27.9525 65.7908 27.5368C64.9712 26.6845 64.5131 25.5453 64.5131 24.3597C64.5131 23.1742 64.9712 22.035 65.7908 21.1826C66.2199 20.7707 66.7266 20.4493 67.281 20.2373C67.8356 20.0253 68.4267 19.927 69.0195 19.9483C69.8927 19.9251 70.7474 20.2035 71.4411 20.7368V20.554C71.4359 20.5102 71.4404 20.4658 71.4544 20.4239C71.4684 20.3822 71.4915 20.344 71.5219 20.3123C71.5524 20.2805 71.5896 20.256 71.6306 20.2405C71.6718 20.225 71.7158 20.2189 71.7594 20.2226L73.6466 20.2111ZM69.2355 26.7483C69.5284 26.7574 69.8198 26.7018 70.0889 26.5852C70.358 26.4687 70.5984 26.2942 70.7931 26.074C71.1711 25.5834 71.3762 24.9803 71.3762 24.3597C71.3762 23.7391 71.1711 23.1362 70.7931 22.6454C70.5991 22.4283 70.3601 22.2563 70.0931 22.1418C69.8259 22.0272 69.5372 21.973 69.2469 21.9826C68.9506 21.9732 68.656 22.0286 68.3831 22.1451C68.1103 22.2615 67.8658 22.4362 67.6667 22.6568C67.2479 23.1262 67.0277 23.7412 67.0527 24.3711C67.0323 24.9949 67.2476 25.6034 67.6553 26.074C67.8549 26.2941 68.0995 26.4684 68.3722 26.5847C68.6449 26.7011 68.9394 26.7568 69.2355 26.7483Z" fill="#0D0E14"/>
<path d="M83.7762 27.5824C82.8146 28.3754 81.6093 28.8088 80.3656 28.8088C79.1218 28.8088 77.9165 28.3754 76.9549 27.5824C76.1301 26.7166 75.6697 25.5641 75.6697 24.3653C75.6697 23.1665 76.1301 22.014 76.9549 21.1481C77.9174 20.3572 79.1224 19.925 80.3656 19.925C81.6087 19.925 82.8137 20.3572 83.7762 21.1481C84.6003 22.012 85.0604 23.1626 85.0604 24.3596C85.0604 25.5565 84.6003 26.7071 83.7762 27.571V27.5824ZM78.7398 26.0738C78.9578 26.2823 79.2147 26.4452 79.4957 26.553C79.7768 26.6609 80.0762 26.7118 80.3769 26.7024C80.6757 26.7102 80.9731 26.6588 81.2521 26.5509C81.5311 26.443 81.7861 26.2809 82.0027 26.0738C82.3992 25.6048 82.6169 25.0094 82.6169 24.3938C82.6169 23.7783 82.3992 23.1829 82.0027 22.7138C81.7861 22.5069 81.5311 22.3447 81.2521 22.2369C80.9731 22.129 80.6757 22.0775 80.3769 22.0853C80.0762 22.076 79.7768 22.1268 79.4957 22.2346C79.2147 22.3425 78.9578 22.5055 78.7398 22.7138C78.3434 23.1829 78.1257 23.7783 78.1257 24.3938C78.1257 25.0094 78.3434 25.6048 78.7398 26.0738Z" fill="#0D0E14"/>
<path d="M89.165 18.2682C88.8646 18.5326 88.4787 18.6783 88.0793 18.6783C87.6799 18.6783 87.2942 18.5326 86.9936 18.2682C86.8574 18.1389 86.7488 17.983 86.6746 17.8101C86.6005 17.6372 86.5622 17.4508 86.5622 17.2625C86.5622 17.0741 86.6005 16.8878 86.6746 16.7148C86.7488 16.5419 86.8574 16.386 86.9936 16.2567C87.2973 15.9989 87.6819 15.8575 88.0793 15.8575C88.4768 15.8575 88.8614 15.9989 89.165 16.2567C89.3014 16.386 89.4099 16.5419 89.4841 16.7148C89.5583 16.8878 89.5965 17.0741 89.5965 17.2625C89.5965 17.4508 89.5583 17.6372 89.4841 17.8101C89.4099 17.983 89.3014 18.1389 89.165 18.2682ZM89.4038 28.8053C88.728 28.8387 88.0603 28.6458 87.5052 28.2567C87.2775 28.0819 87.0946 27.8547 86.972 27.5942C86.8493 27.3338 86.7905 27.0476 86.8003 26.7596V20.5425C86.7949 20.4977 86.7995 20.4521 86.8142 20.4093C86.8288 20.3666 86.8529 20.3278 86.8847 20.2958C86.9165 20.2638 86.9551 20.2396 86.9976 20.225C87.0401 20.2102 87.0855 20.2055 87.13 20.211H89.04C89.256 20.211 89.3583 20.3253 89.3583 20.5425V25.9367C89.3583 26.371 89.5516 26.5882 89.9381 26.5882C90.1106 26.5945 90.2829 26.5751 90.4497 26.531C90.6771 26.531 90.8022 26.5996 90.8135 26.8053L90.9841 28.2339C90.9922 28.2756 90.9914 28.3185 90.9818 28.3598C90.9721 28.4011 90.9537 28.4399 90.9278 28.4734C90.902 28.507 90.8692 28.5347 90.8319 28.5545C90.7945 28.5742 90.7534 28.5858 90.7112 28.5882C90.2892 28.7279 89.8482 28.8012 89.4038 28.8053Z" fill="#0D0E14"/>
<path d="M98.0099 19.9368C98.6065 19.9132 99.2017 20.0102 99.7603 20.2222C100.319 20.4343 100.829 20.7569 101.261 21.1711C102.065 22.0385 102.512 23.1799 102.512 24.3654C102.512 25.5509 102.065 26.6924 101.261 27.5597C100.831 27.9776 100.322 28.3035 99.7626 28.5175C99.2038 28.7317 98.6076 28.8296 98.0099 28.8054C97.1586 28.8245 96.3243 28.5637 95.6338 28.0625V32.1883C95.6338 32.4054 95.5201 32.5083 95.3041 32.5083H93.3942C93.3506 32.5165 93.3057 32.5139 93.2633 32.5007C93.221 32.4875 93.1825 32.4641 93.1511 32.4326C93.1199 32.4011 93.0965 32.3624 93.0835 32.3198C93.0703 32.2773 93.0678 32.2321 93.0759 32.1883V22.8168C93.0893 22.7252 93.0811 22.6317 93.0522 22.5437C93.0232 22.4558 92.9741 22.3758 92.909 22.3103C92.8438 22.2448 92.7644 22.1956 92.6768 22.1664C92.5894 22.1373 92.4963 22.1292 92.4051 22.1425H92.0299C91.7798 22.1425 91.6548 22.0511 91.6548 21.8683V20.5197C91.6488 20.4363 91.6716 20.3533 91.7192 20.2847C91.7667 20.216 91.8363 20.1659 91.9162 20.1425C92.3095 19.9989 92.7257 19.9292 93.1441 19.9368C93.5613 19.8997 93.98 19.9887 94.3467 20.1923C94.7132 20.3959 95.0111 20.7049 95.2018 21.0797C95.568 20.7073 96.0059 20.414 96.4888 20.2174C96.9716 20.0209 97.4892 19.9254 98.0099 19.9368ZM96.2364 26.074C96.4391 26.287 96.6826 26.4565 96.9523 26.5723C97.2219 26.688 97.5121 26.7477 97.8053 26.7477C98.0985 26.7477 98.3887 26.688 98.6583 26.5723C98.9279 26.4565 99.1715 26.287 99.3742 26.074C99.8012 25.5952 100.025 24.9679 99.9994 24.3254C100.029 23.6824 99.8044 23.0536 99.3742 22.5768C99.1715 22.3639 98.9279 22.1944 98.6583 22.0787C98.3887 21.9628 98.0985 21.9031 97.8053 21.9031C97.5121 21.9031 97.2219 21.9628 96.9523 22.0787C96.6826 22.1944 96.4391 22.3639 96.2364 22.5768C95.8228 23.0621 95.6075 23.6869 95.6338 24.3254C95.6108 24.9635 95.8257 25.5871 96.2364 26.074Z" fill="#0D0E14"/>
<path d="M107.878 28.8054C106.858 28.8476 105.846 28.6022 104.956 28.0969C104.6 27.8809 104.296 27.5868 104.067 27.2366C103.839 26.8865 103.692 26.4891 103.638 26.074C103.638 25.8454 103.717 25.7312 103.967 25.7312H105.638C105.718 25.7344 105.795 25.7594 105.861 25.8038C105.927 25.8482 105.98 25.91 106.014 25.9826C106.252 26.5997 106.878 26.9083 107.878 26.9083C108.227 26.9244 108.575 26.8537 108.89 26.7026C108.999 26.6532 109.092 26.575 109.16 26.4764C109.228 26.3778 109.269 26.2624 109.276 26.1426C109.276 25.8454 109.095 25.6397 108.731 25.5026C108.299 25.3582 107.853 25.2624 107.401 25.2169C106.865 25.1558 106.333 25.0604 105.809 24.9312C105.299 24.8153 104.836 24.5485 104.479 24.1654C104.268 23.9051 104.114 23.604 104.024 23.2809C103.934 22.9578 103.911 22.6195 103.957 22.2873C104.003 21.9549 104.117 21.6356 104.29 21.3493C104.464 21.0629 104.695 20.8156 104.968 20.6226C105.787 20.0979 106.749 19.8422 107.719 19.8912C108.658 19.8593 109.588 20.0929 110.402 20.5654C110.73 20.7523 111.012 21.0103 111.229 21.3207C111.445 21.6311 111.59 21.986 111.653 22.3597C111.653 22.5883 111.55 22.7026 111.346 22.7026H109.663C109.592 22.7068 109.522 22.6894 109.461 22.6528C109.4 22.6161 109.352 22.5617 109.322 22.4969C109.21 22.2262 108.998 22.0093 108.731 21.8912C108.429 21.7328 108.093 21.654 107.753 21.6626C107.42 21.6444 107.087 21.7113 106.787 21.8569C106.681 21.898 106.59 21.97 106.525 22.0637C106.46 22.1574 106.424 22.2685 106.423 22.3826C106.43 22.5389 106.487 22.6888 106.585 22.8101C106.684 22.9315 106.818 23.0179 106.969 23.0569C107.405 23.2224 107.859 23.3373 108.321 23.3997C108.853 23.4701 109.381 23.5693 109.902 23.6969C110.411 23.8129 110.875 24.0795 111.232 24.4626C111.423 24.6737 111.571 24.9206 111.666 25.1894C111.762 25.4581 111.804 25.7433 111.789 26.0283C111.799 26.4234 111.707 26.8142 111.521 27.1628C111.336 27.5113 111.064 27.8056 110.732 28.0169C109.882 28.5651 108.887 28.8401 107.878 28.8054Z" fill="#0D0E14"/>
<path d="M123.806 28.2339C123.813 28.2745 123.81 28.316 123.801 28.3559C123.791 28.3959 123.774 28.4333 123.749 28.4664C123.725 28.4994 123.694 28.5272 123.659 28.5481C123.624 28.569 123.585 28.5826 123.544 28.5882C123.129 28.7244 122.696 28.7977 122.26 28.8053C121.828 28.8504 121.391 28.7825 120.993 28.6083C120.594 28.4341 120.247 28.1595 119.986 27.8111C119.183 28.5051 118.144 28.8612 117.087 28.8053C116.596 28.8281 116.106 28.7473 115.647 28.5682C115.189 28.3891 114.773 28.1156 114.426 27.7653C114.082 27.3984 113.815 26.9652 113.641 26.492C113.467 26.0187 113.39 25.5151 113.415 25.0111V20.5425C113.415 20.3253 113.517 20.2111 113.733 20.2111H115.643C115.859 20.2111 115.961 20.3253 115.961 20.5425V24.6682C115.941 25.1823 116.115 25.6849 116.45 26.0739C116.617 26.2522 116.821 26.3923 117.046 26.485C117.271 26.5777 117.514 26.6207 117.758 26.6111C118.006 26.622 118.255 26.5833 118.49 26.4969C118.724 26.4106 118.939 26.2785 119.122 26.1082C119.295 25.9288 119.43 25.7155 119.517 25.4816C119.606 25.2476 119.645 24.998 119.633 24.7482V20.5425C119.633 20.3253 119.736 20.2111 119.952 20.2111H121.884C122.1 20.2111 122.203 20.3253 122.203 20.5425V25.9253C122.203 26.3711 122.396 26.5882 122.771 26.5882C122.947 26.5951 123.124 26.5759 123.294 26.5311C123.337 26.5189 123.383 26.5168 123.426 26.5248C123.47 26.5327 123.511 26.5505 123.548 26.5769C123.584 26.6033 123.614 26.6376 123.635 26.6771C123.656 26.7167 123.667 26.7605 123.669 26.8053L123.806 28.2339Z" fill="#0D0E14"/>
<path d="M141.871 28.2339C141.881 28.2748 141.882 28.3176 141.874 28.3589C141.865 28.4002 141.848 28.4393 141.823 28.4731C141.798 28.5069 141.766 28.5348 141.729 28.5547C141.692 28.5747 141.651 28.5861 141.609 28.5882C141.186 28.7263 140.746 28.7996 140.302 28.8053C139.625 28.8404 138.958 28.6474 138.403 28.2568C138.163 28.0894 137.969 27.8653 137.836 27.6042C137.703 27.343 137.636 27.0529 137.641 26.7596V24.0739C137.665 23.5614 137.495 23.0589 137.164 22.6682C137.005 22.4895 136.807 22.3487 136.588 22.2558C136.367 22.163 136.129 22.1204 135.891 22.131C135.676 22.1229 135.462 22.1639 135.264 22.251C135.068 22.3381 134.894 22.4691 134.754 22.6339C134.454 23.0169 134.3 23.4955 134.322 23.9825V28.1996C134.322 28.4167 134.219 28.531 134.003 28.531H132.082C132.038 28.5366 131.992 28.5318 131.95 28.5172C131.907 28.5025 131.868 28.4782 131.837 28.4462C131.805 28.4143 131.781 28.3755 131.766 28.3328C131.751 28.29 131.747 28.2445 131.752 28.1996V24.0739C131.777 23.567 131.619 23.0681 131.309 22.6682C131.17 22.5002 130.996 22.365 130.8 22.2722C130.604 22.1794 130.389 22.1312 130.172 22.131C129.94 22.1217 129.709 22.1616 129.493 22.2483C129.277 22.3349 129.083 22.4664 128.922 22.6339C128.596 23.0046 128.429 23.489 128.456 23.9825V28.1996C128.461 28.2445 128.457 28.29 128.442 28.3328C128.427 28.3755 128.403 28.4143 128.371 28.4462C128.34 28.4782 128.301 28.5025 128.259 28.5172C128.216 28.5318 128.17 28.5366 128.126 28.531H126.273C126.057 28.531 125.954 28.4167 125.954 28.1996V22.8168C125.968 22.7251 125.96 22.6316 125.93 22.5436C125.902 22.4557 125.853 22.3757 125.787 22.3102C125.722 22.2447 125.643 22.1955 125.555 22.1663C125.468 22.1372 125.375 22.1291 125.284 22.1425H124.908C124.658 22.1425 124.533 22.051 124.533 21.8682V20.5196C124.528 20.4362 124.55 20.3532 124.598 20.2846C124.646 20.2159 124.715 20.1658 124.795 20.1425C125.188 19.9988 125.604 19.9291 126.023 19.9367C126.424 19.9023 126.827 19.9828 127.186 20.1689C127.544 20.3549 127.842 20.6389 128.046 20.9882C128.429 20.6228 128.884 20.3407 129.381 20.1598C129.878 19.9789 130.406 19.903 130.934 19.9367C131.447 19.9116 131.957 20.0082 132.425 20.2187C132.894 20.4292 133.305 20.7476 133.628 21.1482C134.005 20.7371 134.467 20.4153 134.982 20.2057C135.497 19.9962 136.052 19.9044 136.607 19.9367C137.103 19.9134 137.598 19.9938 138.062 20.1729C138.526 20.3518 138.948 20.6255 139.301 20.9767C139.647 21.343 139.914 21.7761 140.088 22.2495C140.262 22.7229 140.339 23.227 140.313 23.731V25.9368C140.313 26.371 140.506 26.5882 140.87 26.5882C141.046 26.5964 141.223 26.5772 141.393 26.531C141.629 26.531 141.754 26.6225 141.768 26.8053L141.871 28.2339Z" fill="#0D0E14"/>
<path d="M8.56033 18.7254C9.39908 15.3365 11.3416 12.327 14.0786 10.1763C16.8157 8.02557 20.1898 6.85718 23.6638 6.85718C27.1377 6.85718 30.5119 8.02557 33.2489 10.1763C35.9859 12.327 37.9284 15.3365 38.7672 18.7254H37.4029C35.1016 18.6913 32.8474 19.3828 30.9568 20.7025C30.8477 20.782 30.7338 20.8545 30.6158 20.9197H30.4566C30.3386 20.8545 30.2247 20.782 30.1156 20.7025C28.2083 19.4133 25.9621 18.7247 23.6638 18.7247C21.3654 18.7247 19.1192 19.4133 17.212 20.7025C17.1028 20.782 16.9889 20.8545 16.8709 20.9197H16.7118C16.5937 20.8545 16.4798 20.782 16.3707 20.7025C14.4802 19.3828 12.226 18.6913 9.92458 18.7254H8.56033ZM34.9473 25.8911C35.6476 25.3429 36.5156 25.056 37.4029 25.0797H39.2333V21.4111H37.4029C35.84 21.3921 34.3128 21.8812 33.0487 22.8054C32.3374 23.3326 31.4769 23.6171 30.593 23.6171C29.7092 23.6171 28.8487 23.3326 28.1374 22.8054C26.8412 21.8984 25.2998 21.4121 23.7206 21.4121C22.1414 21.4121 20.6 21.8984 19.3038 22.8054C18.5925 23.3326 17.732 23.6171 16.8482 23.6171C15.9644 23.6171 15.1039 23.3326 14.3925 22.8054C13.1128 21.8693 11.5637 21.3797 9.98143 21.4111H8.09421V25.0797H9.92458C10.8119 25.056 11.6799 25.3429 12.3802 25.8911C13.674 26.7988 15.2137 27.2854 16.7913 27.2854C18.369 27.2854 19.9087 26.7988 21.2024 25.8911C21.9037 25.3446 22.771 25.058 23.6581 25.0797C24.5458 25.0541 25.4143 25.3412 26.1137 25.8911C27.4099 26.7982 28.9513 27.2844 30.5305 27.2844C32.1098 27.2844 33.6511 26.7982 34.9473 25.8911ZM34.9473 32.4511C35.6476 31.9029 36.5156 31.616 37.4029 31.6397H39.2333V27.9711H37.4029C35.84 27.9521 34.3128 28.4412 33.0487 29.3654C32.3374 29.8926 31.4769 30.1771 30.593 30.1771C29.7092 30.1771 28.8487 29.8926 28.1374 29.3654C26.8412 28.4584 25.2998 27.9723 23.7206 27.9723C22.1414 27.9723 20.6 28.4584 19.3038 29.3654C18.5925 29.8926 17.732 30.1771 16.8482 30.1771C15.9644 30.1771 15.1039 29.8926 14.3925 29.3654C13.1128 28.4294 11.5637 27.9397 9.98143 27.9711H8.09421V31.6397H9.92458C10.8119 31.616 11.6799 31.9029 12.3802 32.4511C13.674 33.3588 15.2137 33.8454 16.7913 33.8454C18.369 33.8454 19.9087 33.3588 21.2024 32.4511C21.9037 31.9046 22.771 31.618 23.6581 31.6397C24.5458 31.6141 25.4143 31.9012 26.1137 32.4511C27.4099 33.3582 28.9513 33.8444 30.5305 33.8444C32.1098 33.8444 33.6511 33.3582 34.9473 32.4511Z" fill="#4B5567"/>
</svg>
