<svg width="151" height="40" viewBox="0 0 151 40" fill="none" xmlns="http://www.w3.org/2000/svg">
<g clip-path="url(#clip0_8_133)">
<path d="M59.9013 11.5288H56.7577V25.6212H65.4602V22.8598H59.9013V11.5288Z" fill="#0D0E14"/>
<path d="M65.7605 20.8411C65.7605 23.85 67.7924 25.8496 70.8593 25.8496C73.9071 25.8496 75.939 23.85 75.939 20.8411C75.939 17.8321 73.9071 15.8135 70.8593 15.8135C67.7924 15.8135 65.7605 17.8321 65.7605 20.8411ZM68.7316 20.822C68.7316 19.3938 69.575 18.4416 70.8593 18.4416C72.1244 18.4416 72.9679 19.3938 72.9679 20.822C72.9679 22.2694 72.1244 23.2216 70.8593 23.2216C69.575 23.2216 68.7316 22.2694 68.7316 20.822Z" fill="#0D0E14"/>
<path d="M76.4138 20.6889C76.4138 23.5645 78.2924 25.5069 80.9568 25.5069C82.2411 25.5069 83.3529 25.0499 83.9087 24.3072V25.6212C83.9087 26.9352 83.0845 27.8112 81.6277 27.8112C80.3242 27.8112 79.4233 27.2018 79.3658 26.1164H76.3755C76.6439 28.7254 78.6757 30.4773 81.4552 30.4773C84.733 30.4773 86.8032 28.3635 86.8032 25.0118V16.0994H84.1387L83.9854 17.0705C83.4487 16.2898 82.3177 15.7756 81.0143 15.7756C78.3307 15.7756 76.4138 17.7752 76.4138 20.6889ZM79.4041 20.6127C79.4041 19.2415 80.3242 18.3274 81.4935 18.3274C82.8545 18.3274 83.8512 19.2225 83.8512 20.6127C83.8512 22.0029 82.8736 22.9551 81.5126 22.9551C80.3434 22.9551 79.4041 22.0029 79.4041 20.6127Z" fill="#0D0E14"/>
<path d="M87.6634 20.8411C87.6634 23.85 89.6954 25.8496 92.7625 25.8496C95.8104 25.8496 97.842 23.85 97.842 20.8411C97.842 17.8321 95.8104 15.8135 92.7625 15.8135C89.6954 15.8135 87.6634 17.8321 87.6634 20.8411ZM90.6344 20.822C90.6344 19.3938 91.4777 18.4416 92.7625 18.4416C94.0271 18.4416 94.8705 19.3938 94.8705 20.822C94.8705 22.2694 94.0271 23.2216 92.7625 23.2216C91.4777 23.2216 90.6344 22.2694 90.6344 20.822Z" fill="#0D0E14"/>
<path d="M100.387 14.6139C101.307 14.6139 102.055 13.8712 102.055 12.9381C102.055 12.0049 101.307 11.2812 100.387 11.2812C99.4481 11.2812 98.7004 12.0049 98.7004 12.9381C98.7004 13.8712 99.4481 14.6139 100.387 14.6139ZM98.8917 25.6212H101.863V16.0993H98.8917V25.6212Z" fill="#0D0E14"/>
<path d="M103.593 30.1917H106.507V24.6691C107.062 25.3927 108.328 25.8879 109.65 25.8879C112.506 25.8879 114.231 23.7169 114.155 20.708C114.078 17.6419 112.295 15.7947 109.631 15.7947C108.27 15.7947 106.986 16.385 106.449 17.2611L106.295 16.0994H103.593V30.1917ZM106.564 20.8603C106.564 19.4321 107.522 18.4799 108.902 18.4799C110.301 18.4799 111.183 19.4511 111.183 20.8603C111.183 22.2696 110.301 23.2408 108.902 23.2408C107.522 23.2408 106.564 22.2886 106.564 20.8603Z" fill="#0D0E14"/>
<path d="M114.469 22.6123C114.545 24.5358 116.079 25.8688 118.494 25.8688C120.814 25.8688 122.424 24.65 122.424 22.6885C122.424 21.2793 121.581 20.3461 120.008 19.9652L118.303 19.5463C117.69 19.394 117.306 19.2416 117.306 18.7464C117.306 18.2513 117.708 17.9275 118.303 17.9275C118.974 17.9275 119.414 18.3656 119.396 19.013H122.06C121.983 17.0325 120.469 15.7947 118.36 15.7947C116.233 15.7947 114.642 17.0516 114.642 18.9559C114.642 20.2318 115.351 21.2793 117.248 21.7744L118.935 22.2124C119.433 22.3457 119.644 22.5742 119.644 22.8979C119.644 23.3741 119.203 23.6788 118.456 23.6788C117.593 23.6788 117.133 23.2789 117.133 22.6123H114.469Z" fill="#0D0E14"/>
<path d="M126.942 25.8687C128.112 25.8687 129.281 25.3355 129.875 24.5547L130.067 25.6212H132.846V16.0994H129.894V21.0508C129.894 22.479 129.473 23.2597 128.112 23.2597C127.057 23.2597 126.367 22.7837 126.367 21.0127V16.0994H123.415V22.079C123.415 24.3453 124.681 25.8687 126.942 25.8687Z" fill="#0D0E14"/>
<path d="M137.528 25.6212V20.4223C137.528 18.8226 138.39 18.3655 139.234 18.3655C140.173 18.3655 140.786 18.9369 140.786 20.1176V25.6212H143.7V20.4223C143.7 18.8036 144.543 18.3465 145.387 18.3465C146.326 18.3465 146.958 18.9178 146.958 20.1176V25.6212H149.834V19.3939C149.834 17.2229 148.684 15.7756 146.211 15.7756C144.831 15.7756 143.7 16.4421 143.201 17.4705C142.626 16.4421 141.63 15.7756 140.038 15.7756C138.984 15.7756 138.007 16.2517 137.432 17.0134L137.317 16.0994H134.556V25.6212H137.528Z" fill="#0D0E14"/>
<path d="M0.591858 20.0001C0.591858 12.2957 6.87843 6.05005 14.6333 6.05005H33.0627C40.8176 6.05005 47.1042 12.2957 47.1042 20.0001V33.9501H14.6333C6.87843 33.9501 0.591858 27.7045 0.591858 20.0001Z" fill="#0D0E14"/>
<path d="M33.0627 11.2812H14.6333C9.78653 11.2812 5.85742 15.1848 5.85742 20C5.85742 24.8153 9.78653 28.7188 14.6333 28.7188H33.0627C37.9095 28.7188 41.8386 24.8153 41.8386 20C41.8386 15.1848 37.9095 11.2812 33.0627 11.2812Z" fill="#4B5567"/>
<path d="M14.6333 24.3594C17.0567 24.3594 19.0213 22.4076 19.0213 20C19.0213 17.5924 17.0567 15.6406 14.6333 15.6406C12.2099 15.6406 10.2454 17.5924 10.2454 20C10.2454 22.4076 12.2099 24.3594 14.6333 24.3594Z" fill="#0D0E14"/>
<path d="M12.8782 19.128C13.3629 19.128 13.7558 18.7377 13.7558 18.2562C13.7558 17.7746 13.3629 17.3843 12.8782 17.3843C12.3935 17.3843 12.0006 17.7746 12.0006 18.2562C12.0006 18.7377 12.3935 19.128 12.8782 19.128Z" fill="white"/>
<path d="M33.9403 24.3594C36.3637 24.3594 38.3283 22.4076 38.3283 20C38.3283 17.5924 36.3637 15.6406 33.9403 15.6406C31.5169 15.6406 29.5524 17.5924 29.5524 20C29.5524 22.4076 31.5169 24.3594 33.9403 24.3594Z" fill="#0D0E14"/>
<path d="M32.1851 19.128C32.6698 19.128 33.0627 18.7377 33.0627 18.2562C33.0627 17.7746 32.6698 17.3843 32.1851 17.3843C31.7005 17.3843 31.3076 17.7746 31.3076 18.2562C31.3076 18.7377 31.7005 19.128 32.1851 19.128Z" fill="white"/>
</g>
<defs>
<clipPath id="clip0_8_133">
<rect width="150.068" height="40" fill="white" transform="translate(0.591858)"/>
</clipPath>
</defs>
</svg>
