<svg width="153" height="144" viewBox="0 0 153 144" fill="none" xmlns="http://www.w3.org/2000/svg">
<path d="M14.355 83.996C16.0629 82.9675 16.6573 80.6755 15.6817 78.8747L14.7868 77.2486L26.828 74.908L29.2056 79.2806V79.2817C31.5596 83.541 35.6667 86.3976 40.3098 87.0064C44.9529 87.6152 49.6006 85.9053 52.8742 82.383C56.1466 78.8608 57.6702 73.9314 56.9929 69.0563L83.0824 64.0009L84.9044 67.3496L84.9033 67.3485C85.334 68.2852 86.1147 68.9916 87.0591 69.299C88.0035 69.6063 89.0264 69.4872 89.8836 68.9701C90.7418 68.453 91.3567 67.5844 91.5839 66.5706C91.81 65.5579 91.627 64.4919 91.0789 63.6254L57.5026 1.67145C56.4613 0.0294266 54.3917 -0.484296 52.7644 0.496615C51.1371 1.47753 50.5095 3.61739 51.3268 5.39435L52.871 8.17378L7.36108 63.4478L6.77421 62.3751H6.77529C6.34348 61.4395 5.56279 60.733 4.61841 60.4257C3.6751 60.1184 2.65213 60.2375 1.79392 60.7546C0.936761 61.2717 0.320809 62.1403 0.0946791 63.153C-0.131454 64.1668 0.0516063 65.2328 0.599702 66.0981L9.49218 82.5991C10.4689 84.3987 12.6453 85.0247 14.3552 83.9973L14.355 83.996ZM50.0292 70.3891C50.321 72.9372 49.4746 75.4843 47.7388 77.2862C46.0029 79.0881 43.5715 79.9409 41.1561 79.5962C38.7408 79.2525 36.6131 77.7489 35.3952 75.5261L34.2527 73.511L50.0292 70.3891ZM82.1086 27.9901C81.5906 27.0353 81.4539 25.9024 81.7295 24.8409C82.0041 23.7795 82.6685 22.8779 83.5752 22.3325L95.277 15.2937V15.2926C96.1848 14.6768 97.2929 14.4795 98.3427 14.7494C99.3916 15.0182 100.291 15.7303 100.827 16.718C101.363 17.7046 101.491 18.8806 101.18 19.9703C100.869 21.0601 100.147 21.9662 99.1826 22.4787L87.4657 29.615C86.5504 30.1491 85.4714 30.2784 84.4667 29.9734C83.462 29.6683 82.6136 28.9551 82.1086 27.9901ZM75.6401 19.5202H75.6411C74.1314 18.0653 73.9484 15.6283 75.2233 13.9431L83.8368 2.56347H83.8379C84.47 1.6812 85.4144 1.10402 86.4557 0.965659C87.4969 0.826176 88.5479 1.13689 89.3684 1.82636C90.19 2.5147 90.7112 3.5251 90.8156 4.62507C90.919 5.72506 90.596 6.82276 89.9197 7.66862L81.3062 19.0483C80.6343 19.9317 79.6458 20.4851 78.5732 20.5769H78.2803C77.3101 20.5917 76.3689 20.2276 75.641 19.5518L75.6401 19.5202ZM85.799 38.1824C85.5836 37.0768 85.8108 35.9269 86.4278 35.0039C87.0438 34.0808 87.9946 33.4662 89.0552 33.3063L102.687 31.2412C104.819 30.9226 106.792 32.4841 107.094 34.7284C107.397 36.9726 105.914 39.0513 103.783 39.3698L90.105 41.4178H89.5644H89.5655C87.7478 41.394 86.1865 40.0537 85.799 38.1824ZM39.4868 143.999C38.2657 144.03 37.0844 143.539 36.2122 142.639C35.3399 141.738 34.8511 140.506 34.8554 139.22V122.589C34.8554 121.325 35.3313 120.114 36.1799 119.221C37.0284 118.327 38.1784 117.826 39.3781 117.826H51.6357C52.8353 117.826 53.9853 118.327 54.834 119.221C55.6825 120.114 56.1585 121.325 56.1585 122.589V139.22C56.1585 140.483 55.6825 141.694 54.834 142.588C53.9855 143.482 52.8354 143.983 51.6357 143.983L39.4868 143.999ZM69.8516 143.999C68.6509 143.999 67.5009 143.497 66.6525 142.604C65.805 141.71 65.328 140.499 65.328 139.236V117.012C65.328 115.749 65.805 114.537 66.6525 113.644C67.501 112.751 68.6511 112.248 69.8516 112.248H82.1091H82.1081C83.3077 112.248 84.4588 112.751 85.3064 113.644C86.1549 114.537 86.6319 115.749 86.6319 117.012V139.22C86.6319 140.483 86.1549 141.694 85.3064 142.588C84.4589 143.481 83.3078 143.983 82.1081 143.983L69.8516 143.999ZM116.936 104.398V139.22C116.936 140.483 116.46 141.695 115.611 142.588C114.763 143.482 113.613 143.983 112.413 143.983H100.14C98.9405 143.983 97.7894 143.482 96.9418 142.588C96.0933 141.695 95.6162 140.484 95.6162 139.22V104.398C95.6162 103.135 96.0933 101.924 96.9418 101.03C97.7893 100.136 98.9404 99.6351 100.14 99.6351H112.398C113.599 99.6306 114.754 100.131 115.606 101.024C116.457 101.918 116.936 103.131 116.936 104.398ZM147.3 80.7597V139.123C147.301 140.396 146.828 141.62 145.982 142.531C145.137 143.443 143.987 143.969 142.778 143.999H130.566C129.357 143.969 128.207 143.443 127.362 142.531C126.517 141.62 126.043 140.396 126.044 139.123V80.7597C126.043 79.4862 126.517 78.2626 127.362 77.3509C128.207 76.4403 129.357 75.913 130.566 75.8835H142.761C143.974 75.9085 145.128 76.4335 145.977 77.3453C146.825 78.257 147.3 79.4839 147.3 80.7597ZM152.904 49.8713C153.152 51.1323 152.915 52.4443 152.247 53.5227C151.58 54.6 150.534 55.3564 149.339 55.6263C148.139 55.8962 146.887 55.6546 145.856 54.9538C144.826 54.253 144.102 53.1496 143.843 51.8876L141.959 42.6205C133.586 56.961 122.773 69.5541 110.064 79.7679C99.2834 88.3342 87.227 94.9602 74.3876 99.3737C62.6328 103.517 50.3356 105.706 37.9416 105.86C35.8579 105.86 34.6228 105.779 34.499 105.763C32.845 105.638 31.3785 104.594 30.6548 103.022C29.9301 101.45 30.0561 99.5916 30.9865 98.1444C31.9158 96.6974 33.5084 95.8843 35.1634 96.0091H37.7413C49.2913 95.8356 60.7477 93.7841 71.7036 89.9286C97.8242 80.825 118.788 63.1367 134.04 37.3225L125.487 39.3705C123.911 39.6347 122.315 39.0258 121.266 37.7568C120.217 36.4879 119.863 34.7403 120.329 33.1311C120.796 31.522 122.016 30.2802 123.558 29.8437L143.21 25.4224C144.409 25.1513 145.662 25.394 146.692 26.0948C147.723 26.7956 148.446 27.899 148.706 29.161L152.904 49.8713Z" fill="#8447E9"/>
</svg>
