<svg width="151" height="40" viewBox="0 0 151 40" fill="none" xmlns="http://www.w3.org/2000/svg">
<path d="M28.6091 17.0173C31.4982 17.0173 32.1481 18.2564 32.1481 19.8019C32.1481 21.4401 31.3619 22.6137 28.6211 22.6137C25.8978 22.6137 25.1106 21.5082 25.1106 19.8019C25.1106 18.1228 25.9687 17.0173 28.6091 17.0173Z" fill="#0D0E14"/>
<path d="M58.8013 17.0173C61.6904 17.0173 62.3403 18.2564 62.3403 19.8019C62.3403 21.4401 61.5532 22.6137 58.8133 22.6137C56.0909 22.6137 55.3028 21.5082 55.3028 19.8019C55.3028 18.1228 56.1609 17.0173 58.8013 17.0173Z" fill="#0D0E14"/>
<path fill-rule="evenodd" clip-rule="evenodd" d="M3.03012 35.9092V3.6792H149.027V35.9092H3.03012ZM72.612 34.091H147.186V5.49738H72.612V34.091ZM28.6229 25.3574C33.7519 25.3574 35.9081 23.1728 35.9081 19.761C35.9081 16.2937 33.4794 14.2328 28.6229 14.2328C23.841 14.2328 21.3239 16.471 21.3239 19.761C21.3239 23.4737 23.9644 25.3574 28.6229 25.3574ZM10.7906 14.4783V25.1937H21.1425V22.3401H14.5359V14.4783H10.7906ZM47.4937 25.1937L47.3971 24.1556C46.1441 25.0385 44.6192 25.4634 43.0838 25.3574C40.7757 25.3574 38.8533 24.6747 37.7752 23.2965C37.0641 22.2903 36.7051 21.0825 36.7524 19.8565C36.712 18.6562 37.0834 17.4777 37.8065 16.5119C38.8975 15.1747 40.8751 14.2874 43.8194 14.2874C47.2065 14.2874 49.197 15.311 50.0532 17.031C50.237 17.4361 50.3449 17.8707 50.3717 18.3137H46.7885C46.6982 18.0445 46.5302 17.8072 46.3052 17.631C45.5914 17.1637 44.739 16.9477 43.8857 17.0174C43.3851 16.9575 42.8773 17.0031 42.3959 17.1514C41.9146 17.2997 41.4706 17.5471 41.0933 17.8774C40.6648 18.4565 40.4637 19.1694 40.5271 19.8837C40.4774 20.5653 40.6623 21.2435 41.0519 21.8083C41.4326 22.1586 41.8852 22.4238 42.3788 22.5864C42.8726 22.7488 43.3958 22.8047 43.9133 22.7501C44.941 22.8327 45.9614 22.5197 46.7609 21.8765C46.9326 21.6645 47.051 21.4152 47.1061 21.1492H43.2504V18.8465H50.4656V25.1937H47.4937ZM58.8151 25.3574C63.9432 25.3574 66.1003 23.1728 66.1003 19.761C66.1003 16.2937 63.6679 14.2328 58.8151 14.2328C54.0332 14.2328 51.5161 16.471 51.5161 19.761C51.5161 23.4737 54.1566 25.3574 58.8151 25.3574Z" fill="#0D0E14"/>
<path d="M78.9205 25.1527V14.4373H81.5905V25.1527H78.9205Z" fill="#0D0E14"/>
<path d="M95.301 20.6755C94.6243 21.5491 93.4597 21.9482 91.8182 21.9582C91.472 21.9582 86.8825 21.9446 86.8825 21.9446V25.1528H84.2697V14.4373H91.8191C92.4241 14.3741 93.0362 14.4375 93.6144 14.6232C94.1935 14.809 94.7256 15.113 95.1777 15.5155C95.7743 16.2829 96.0643 17.2398 95.9934 18.2046C96.0541 19.082 95.8102 19.9538 95.301 20.6755ZM93.1587 17.1818C92.8825 16.7728 92.2868 16.5455 91.2787 16.5455H86.8687V19.8073H91.2501C92.3282 19.8073 92.8963 19.5891 93.1587 19.1655C93.3142 18.867 93.3814 18.5309 93.352 18.1964C93.375 17.8475 93.3087 17.4985 93.1587 17.1818Z" fill="#0D0E14"/>
<path d="M103.693 25.3164C98.771 25.3164 97.2648 23.4982 97.2648 21.6991H100.057C100.057 22.5864 101.287 23.2555 103.817 23.2555C106.332 23.2555 106.996 22.8182 106.996 22.1082C106.996 21.3164 106.499 21.071 104.162 20.8119C103.702 20.771 102.449 20.621 101.979 20.5528C98.6642 20.1837 97.3881 19.2146 97.3881 17.481C97.3881 15.6519 99.2552 14.2737 103.305 14.2737C107.701 14.2737 109.388 15.98 109.388 17.7546H106.626C106.626 16.8537 105.589 16.3346 103.142 16.3346C100.626 16.3346 100.088 16.6755 100.088 17.3446C100.088 18.041 100.64 18.2591 103.31 18.5728C103.918 18.6555 105.273 18.8055 105.646 18.8455C108.466 19.1319 109.738 20.1419 109.738 21.93C109.733 24.06 107.798 25.3164 103.693 25.3164Z" fill="#0D0E14"/>
<path d="M117.6 25.3027C113.993 25.3027 111.643 23.8963 111.643 20.9391V14.4373H114.282V20.9754C114.282 22.3273 115.403 23.2273 117.711 23.2273C119.798 23.2273 121.043 22.3818 121.043 20.9754V14.4373H123.656V21.1818C123.656 23.87 121.471 25.3027 117.6 25.3027Z" fill="#0D0E14"/>
<path d="M137.963 25.1527V18L134.576 25.1527H132.005L128.715 18V25.1527H126.229V14.4373H129.597L133.329 22.6L137.144 14.4373H140.459V25.1527H137.963Z" fill="#0D0E14"/>
</svg>
