<svg width="116" height="144" viewBox="0 0 116 144" fill="none" xmlns="http://www.w3.org/2000/svg">
<path d="M105.662 44.3055C103.353 44.3122 101.112 45.104 99.2966 46.5548C97.4814 48.0056 96.196 50.0316 95.6455 52.3112H74.3792C83.2838 44.8585 88.3296 33.6616 88.0635 21.941C88.0635 21.616 88.0394 21.3156 88.0141 21.0151H92.6169C93.975 21.0106 95.0749 19.8927 95.0782 18.5133V2.50191C95.0804 1.83738 94.8222 1.19964 94.3607 0.730561C93.8981 0.260369 93.2707 -0.0021044 92.6169 0.000125759H76.8645C76.2096 -0.00657531 75.58 0.25477 75.1175 0.724985C74.6538 1.19629 74.3966 1.83626 74.4032 2.50191V18.5133C74.401 19.1779 74.6603 19.8145 75.1218 20.2847C75.5844 20.7538 76.2118 21.0173 76.8645 21.0151H83.0915C83.1157 21.3156 83.1409 21.616 83.1409 21.941C83.1409 34.0502 77.5789 44.8079 69.0125 49.9856L69.0136 46.8082C69.0092 45.4288 67.9093 44.3108 66.5523 44.3064H50.7999C49.4418 44.3108 48.3419 45.4288 48.3386 46.8082V50.7361C39.1089 45.9581 32.8819 34.6744 32.8819 21.9413C32.8819 21.6163 32.9061 21.3158 32.9314 21.0154H39.1583C40.5153 21.0109 41.6152 19.8929 41.6196 18.5136V2.5022C41.6218 1.83766 41.3625 1.19992 40.901 0.730847C40.4384 0.260654 39.811 -0.00181864 39.1583 0.00041152H23.406C22.7522 -0.00182207 22.1248 0.260643 21.6622 0.730847C21.2007 1.19992 20.9425 1.83766 20.9447 2.5022V18.5136C20.948 19.8929 22.0479 21.0109 23.406 21.0154H28.0087C27.9846 21.3158 27.9593 21.6163 27.9593 21.9413C27.7209 33.6574 32.7609 44.8416 41.6436 52.3115H20.3774C19.5686 48.9565 17.1886 46.22 14.0109 44.9914C10.8342 43.764 7.26633 44.2018 4.46888 46.163C1.67025 48.1243 0 51.3587 0 54.8132C0 58.2677 1.67017 61.5023 4.46888 63.4634C7.26642 65.4246 10.8342 65.8624 14.0109 64.635C17.1886 63.4075 19.5686 60.6702 20.3774 57.3149H48.3383V62.8188C48.3416 64.1993 49.4415 65.3173 50.7996 65.3206H66.552C67.909 65.3173 69.0089 64.1993 69.0133 62.8188V57.3149H95.6449C96.2657 59.877 97.8128 62.1075 99.9785 63.5616C102.144 65.0158 104.769 65.5887 107.332 65.1644C109.894 64.7399 112.205 63.3517 113.805 61.2733C115.405 59.1959 116.176 56.5825 115.966 53.9524C115.755 51.3221 114.578 48.8696 112.669 47.0826C110.759 45.2945 108.258 44.3038 105.662 44.3061L105.662 44.3055Z" fill="#8447E9"/>
<path d="M68.6187 134.919H47.4031C45.9604 134.919 44.5769 135.502 43.5572 136.538C42.5365 137.576 41.964 138.982 41.9629 140.447V144H74.0583V140.447C74.0572 138.982 73.4847 137.576 72.4639 136.538C71.4443 135.502 70.0609 134.919 68.6181 134.919H68.6187Z" fill="#8447E9"/>
<path d="M58.0112 114.355C59.1759 114.355 60.2263 113.643 60.6713 112.548C61.1174 111.455 60.8713 110.196 60.0472 109.359C59.2242 108.522 57.9848 108.271 56.9091 108.724C55.8334 109.178 55.1313 110.244 55.1313 111.428C55.128 112.205 55.4312 112.953 55.9719 113.502C56.5125 114.052 57.2464 114.359 58.0112 114.355L58.0112 114.355Z" fill="#8447E9"/>
<path d="M60.4724 103.948C62.837 104.746 64.6831 106.645 65.4423 109.056C66.2016 111.469 65.7818 114.103 64.3128 116.15C62.8437 118.195 60.5021 119.404 58.0113 119.404C55.5204 119.404 53.1787 118.195 51.7097 116.15C50.2406 114.104 49.8209 111.469 50.5802 109.056C51.3395 106.645 53.1854 104.746 55.5501 103.948V83.783L39.7977 111.754L46.7884 129.966C46.9851 129.966 47.1817 129.916 47.4037 129.916H68.6204C68.8424 129.916 69.0391 129.966 69.2358 129.966L76.2264 111.754L60.4729 83.783L60.4724 103.948Z" fill="#8447E9"/>
</svg>
