<svg width="151" height="40" viewBox="0 0 151 40" fill="none" xmlns="http://www.w3.org/2000/svg">
<path d="M23.0296 29.4629L3.5208 16.0933C1.54382 14.7385 2.21586 11.9177 4.68111 11.2543L25.4155 5.6634C25.8547 5.50594 26.3254 5.45483 26.7885 5.51431C27.2516 5.57378 27.6937 5.74212 28.0782 6.00537C28.4627 6.26861 28.7784 6.61916 28.9992 7.02791C29.22 7.43667 29.3395 7.89185 29.3477 8.35568L28.1189 27.3151C27.9732 29.5655 25.0066 30.8176 23.0296 29.4629Z" fill="#A1AEBF"/>
<path d="M16.8421 32.7634L5.34885 10.4333C5.08612 9.9225 4.97051 9.34948 5.01476 8.7775C5.05901 8.20552 5.2614 7.65679 5.59961 7.19183C5.93783 6.72687 6.39872 6.36374 6.93148 6.14248C7.46423 5.92122 8.04813 5.85043 8.61881 5.93793L29.9187 9.20388C30.409 9.27908 30.8745 9.46885 31.2767 9.75758C31.6788 10.0463 32.0063 10.4258 32.2321 10.8647C32.4579 11.3037 32.5757 11.7896 32.5756 12.2826C32.5755 12.7756 32.4576 13.2615 32.2317 13.7004L22.4197 32.7645C22.1562 33.2739 21.7564 33.7013 21.2643 33.9996C20.7723 34.298 20.207 34.4557 19.6306 34.4556C19.0541 34.4555 18.4888 34.2976 17.9969 33.9991C17.5049 33.7004 17.1054 33.2729 16.8421 32.7634Z" fill="#728095"/>
<path d="M29.2955 9.10773L18.6777 7.47961L5.64134 10.9962L10.8448 21.1095L23.0297 29.4629C23.2985 29.6452 23.5942 29.7848 23.9061 29.8767L28.5343 20.8848L29.2955 9.10773Z" fill="#0D0E14"/>
<path d="M83.0775 11.7179C83.0775 11.3258 83.1945 10.9426 83.4137 10.6165C83.633 10.2905 83.9447 10.0364 84.3093 9.88638C84.6739 9.73633 85.0751 9.69707 85.4622 9.77356C85.8493 9.85007 86.2049 10.0389 86.4839 10.3161C86.763 10.5934 86.953 10.9466 87.03 11.3312C87.107 11.7158 87.0675 12.1144 86.9165 12.4766C86.7654 12.8389 86.5097 13.1485 86.1816 13.3663C85.8534 13.5842 85.4676 13.7004 85.0729 13.7004C84.5453 13.6951 84.0409 13.4845 83.6678 13.1139C83.2948 12.7432 83.0828 12.2421 83.0775 11.7179ZM83.4102 14.6695H86.7367V25.6828H83.4102V14.6695Z" fill="#0D0E14"/>
<path d="M101.102 20.1761C101.141 20.904 101.034 21.6324 100.788 22.3193C100.542 23.0061 100.163 23.638 99.6703 24.1785C99.1779 24.7189 98.5828 25.1573 97.9192 25.4686C97.2557 25.7797 96.5368 25.9576 95.8038 25.9917C95.1874 26.025 94.5711 25.9217 93.9996 25.6893C93.4283 25.4568 92.9161 25.1011 92.5002 24.6477V30.0885H89.1747V14.6694H92.5002V15.7044C92.9162 15.2512 93.4284 14.8957 93.9999 14.6634C94.5712 14.4312 95.1875 14.328 95.8038 14.3615C96.5368 14.3955 97.2556 14.5732 97.9191 14.8842C98.5827 15.1954 99.1778 15.6337 99.6701 16.1741C100.163 16.7145 100.542 17.3462 100.788 18.0331C101.034 18.7199 101.141 19.4481 101.102 20.1761ZM97.7765 20.1761C97.7634 19.6604 97.5976 19.1601 97.2997 18.7376C97.0019 18.3151 96.5852 17.9893 96.1019 17.801C95.6185 17.6126 95.09 17.5701 94.5825 17.6787C94.075 17.7873 93.6109 18.0421 93.2484 18.4114C92.886 18.7807 92.6412 19.248 92.5447 19.7548C92.4483 20.2616 92.5045 20.7855 92.7062 21.2608C92.908 21.736 93.2463 22.1416 93.6788 22.4268C94.1115 22.712 94.6192 22.864 95.1383 22.864C95.4949 22.88 95.8507 22.8208 96.1826 22.6905C96.5145 22.5601 96.8148 22.3615 97.064 22.1077C97.3131 21.8538 97.5054 21.5505 97.6282 21.2176C97.751 20.8847 97.8016 20.5297 97.7765 20.1761Z" fill="#0D0E14"/>
<path d="M111.367 22.3768C111.367 24.9103 109.149 25.9895 106.755 25.9895C105.787 26.0765 104.816 25.8731 103.966 25.4056C103.117 24.9382 102.428 24.2282 101.988 23.3675L104.87 21.7383C104.987 22.1362 105.238 22.482 105.581 22.718C105.924 22.9539 106.339 23.0657 106.755 23.0347C107.553 23.0347 107.951 22.7917 107.951 22.3519C107.951 21.1398 102.497 21.7793 102.497 17.9678C102.497 15.5672 104.536 14.3561 106.847 14.3561C107.714 14.3291 108.572 14.5334 109.332 14.9479C110.093 15.3623 110.727 15.9716 111.17 16.7124L108.333 18.2325C108.209 17.9434 108.001 17.697 107.737 17.5241C107.473 17.3511 107.164 17.2594 106.847 17.2602C106.271 17.2602 105.916 17.4762 105.916 17.8771C105.913 19.1411 111.367 18.3038 111.367 22.3768Z" fill="#0D0E14"/>
<path d="M123.521 14.6696V25.6828H120.195V24.6457C119.812 25.1026 119.323 25.4626 118.772 25.6962C118.222 25.9298 117.623 26.0304 117.024 25.9897C114.785 25.9897 112.879 24.4037 112.879 21.4294V14.6696H116.205V20.9476C116.176 21.2101 116.207 21.4756 116.293 21.7253C116.379 21.9751 116.518 22.2034 116.701 22.3942C116.885 22.585 117.108 22.7336 117.355 22.8299C117.603 22.9263 117.868 22.9678 118.134 22.9517C119.353 22.9517 120.2 22.2473 120.2 20.6829V14.6696H123.521Z" fill="#0D0E14"/>
<path d="M142.582 18.9197V25.6828H139.256V19.2071C139.256 18.1062 138.723 17.4007 137.66 17.4007C136.551 17.4007 135.931 18.1721 135.931 19.4718V25.6828H132.604V19.2071C132.604 18.1062 132.072 17.4007 131.008 17.4007C129.9 17.4007 129.279 18.1721 129.279 19.4718V25.6828H125.953V14.6695H129.284V15.6786C129.629 15.2293 130.081 14.8729 130.6 14.6421C131.119 14.4113 131.689 14.3134 132.255 14.3573C132.824 14.3297 133.392 14.449 133.9 14.7037C134.409 14.9583 134.843 15.3396 135.16 15.8104C135.528 15.3178 136.017 14.9261 136.579 14.672C137.141 14.4178 137.76 14.3096 138.375 14.3573C140.92 14.3616 142.582 16.1669 142.582 18.9197Z" fill="#0D0E14"/>
<path d="M145.399 14.6014C146.763 14.6014 147.868 13.5034 147.868 12.149C147.868 10.7945 146.763 9.69653 145.399 9.69653C144.036 9.69653 142.931 10.7945 142.931 12.149C142.931 13.5034 144.036 14.6014 145.399 14.6014Z" fill="#0D0E14"/>
<path d="M37.6744 9.60364H41.0009V25.6828H37.6744V9.60364ZM42.8844 20.1762C42.8808 19.0215 43.222 17.8917 43.865 16.93C44.508 15.9681 45.4239 15.2175 46.4966 14.7731C47.5693 14.3288 48.7505 14.2106 49.8909 14.4336C51.0312 14.6567 52.0793 15.2108 52.9024 16.0261C53.7255 16.8412 54.2866 17.8806 54.5147 19.0128C54.7427 20.1451 54.6275 21.319 54.1836 22.3861C53.7397 23.4532 52.9871 24.3654 52.021 25.0073C51.0549 25.6491 49.9189 25.9918 48.7566 25.9918C47.9847 25.9999 47.219 25.8553 46.504 25.5661C45.7891 25.277 45.1392 24.8492 44.5925 24.3078C44.0458 23.7664 43.6132 23.1221 43.3199 22.4128C43.0266 21.7034 42.8786 20.943 42.8844 20.1762ZM51.3099 20.1762C51.2969 19.678 51.1364 19.1949 50.8483 18.787C50.5604 18.3792 50.1577 18.0647 49.6907 17.883C49.2237 17.7014 48.7132 17.6604 48.223 17.7656C47.7328 17.8706 47.2846 18.117 46.9346 18.4737C46.5845 18.8306 46.3482 19.282 46.255 19.7715C46.162 20.2611 46.2161 20.767 46.411 21.2262C46.6057 21.6852 46.9325 22.0771 47.3503 22.3527C47.7681 22.6283 48.2584 22.7753 48.7599 22.7756C49.1033 22.7853 49.4451 22.7241 49.7635 22.5961C50.082 22.4682 50.3703 22.276 50.6103 22.0317C50.8503 21.7876 51.0368 21.4966 51.1579 21.1773C51.2791 20.8578 51.3323 20.5169 51.3143 20.1762H51.3099ZM67.8925 14.6663V25.1297C67.8925 28.8299 64.9879 30.3932 62.0398 30.3932C61.0022 30.471 59.9629 30.2635 59.0359 29.7933C58.1091 29.3232 57.3304 28.6086 56.7852 27.728L59.6224 26.0977C59.8514 26.5573 60.2163 26.9365 60.6681 27.1846C61.1199 27.4327 61.6371 27.5378 62.1507 27.486C62.4786 27.5304 62.8122 27.5012 63.1271 27.4004C63.4421 27.2996 63.7301 27.13 63.9702 26.9037C64.2102 26.6776 64.3961 26.4008 64.5141 26.0937C64.6321 25.7866 64.6791 25.4571 64.6519 25.1297V24.1163C64.2623 24.5895 63.7666 24.9655 63.2045 25.2141C62.6422 25.4626 62.0293 25.5769 61.4145 25.5478C59.9514 25.5025 58.5632 24.8933 57.5443 23.849C56.5253 22.8047 55.9555 21.4075 55.9555 19.9531C55.9555 18.4986 56.5253 17.1013 57.5443 16.0571C58.5632 15.0128 59.9514 14.4035 61.4145 14.3583C62.0293 14.3291 62.6422 14.4434 63.2045 14.692C63.7666 14.9406 64.2623 15.3166 64.6519 15.7899V14.6663H67.8925ZM64.6562 19.9525C64.6782 19.4206 64.5394 18.8943 64.2579 18.4413C63.9763 17.9883 63.5648 17.6293 63.0763 17.4105C62.5878 17.1918 62.0445 17.1232 61.5164 17.2136C60.9883 17.304 60.4995 17.5493 60.1128 17.9179C59.7261 18.2865 59.4593 18.7615 59.3466 19.282C59.2339 19.8025 59.2804 20.3445 59.4803 20.8386C59.68 21.3325 60.0241 21.7558 60.468 22.054C60.9119 22.3522 61.4355 22.5116 61.9713 22.5119C62.3207 22.5363 62.6714 22.4877 63.0008 22.3694C63.3302 22.2511 63.631 22.0656 63.8839 21.8248C64.1367 21.5841 64.3362 21.2934 64.4692 20.9716C64.6022 20.6496 64.6659 20.3036 64.6562 19.9558V19.9525ZM69.7759 20.1686C69.7723 19.0139 70.1136 17.8842 70.7566 16.9224C71.3996 15.9606 72.3154 15.2099 73.3881 14.7656C74.4609 14.3212 75.6421 14.203 76.7825 14.4261C77.9228 14.6491 78.9707 15.2032 79.7939 16.0185C80.617 16.8336 81.1782 17.8731 81.4062 19.0053C81.6342 20.1375 81.5191 21.3114 81.0752 22.3785C80.6313 23.4456 79.8787 24.3579 78.9126 24.9997C77.9465 25.6416 76.8104 25.9842 75.6481 25.9842C74.8769 25.9923 74.1118 25.8479 73.3973 25.5592C72.6829 25.2707 72.0334 24.8435 71.4868 24.3029C70.9401 23.7623 70.5074 23.119 70.2137 22.4104C69.9199 21.7019 69.7711 20.9424 69.7759 20.1762V20.1686ZM78.2015 20.1686C78.1886 19.6702 78.0281 19.1867 77.7402 18.7784C77.4521 18.3702 77.0492 18.0555 76.5821 17.8736C76.1148 17.6917 75.604 17.6507 75.1134 17.7558C74.6229 17.8608 74.1744 18.1074 73.8243 18.4643C73.474 18.8214 73.2375 19.2731 73.1444 19.7629C73.0512 20.2528 73.1056 20.7592 73.3006 21.2184C73.4956 21.6778 73.8226 22.0697 74.2408 22.3455C74.659 22.6211 75.1497 22.768 75.6514 22.768C75.9938 22.777 76.3343 22.7157 76.6517 22.5879C76.9692 22.4601 77.2566 22.2684 77.4961 22.0251C77.7354 21.7818 77.9217 21.492 78.043 21.1738C78.1645 20.8556 78.2184 20.516 78.2015 20.1762V20.1686Z" fill="#0D0E14"/>
</svg>
