<svg width="151" height="40" viewBox="0 0 151 40" fill="none" xmlns="http://www.w3.org/2000/svg">
<g clip-path="url(#clip0_8_184)">
<path d="M11.0464 28.5089C8.15522 31.3812 3.2587 31.3698 1.89124 27.5416C1.62351 26.7921 1.40945 26.0214 1.25201 25.2351C0.609181 22.0244 0.939103 18.6965 2.20006 15.672C3.46101 12.6477 5.59635 10.0627 8.33606 8.24401C11.0758 6.42532 14.2968 5.45459 17.5919 5.45459C20.8869 5.45459 24.1079 6.42532 26.8476 8.24401C29.5873 10.0627 31.7226 12.6477 32.9836 15.6721C34.2446 18.6965 34.5744 22.0244 33.9317 25.2351C33.7742 26.0214 33.5602 26.7921 33.2924 27.5416C31.9249 31.3698 27.0284 31.3812 24.1372 28.5089L19.6743 24.075C19.2479 23.6514 19.292 22.9528 19.4096 22.3652C19.4811 22.0081 19.4444 21.6379 19.3041 21.3014C19.1638 20.9649 18.9263 20.6773 18.6215 20.4751C18.3167 20.2728 17.9584 20.1648 17.5919 20.1648C17.2253 20.1648 16.867 20.2728 16.5622 20.4751C16.2573 20.6773 16.0198 20.9649 15.8795 21.3014C15.7392 21.6379 15.7025 22.0081 15.7741 22.3652C15.8917 22.9528 15.9357 23.6514 15.5093 24.075L11.0464 28.5089Z" fill="#728095"/>
<path d="M47.8059 24.535H52.284V27.1568H44.3872V13.2139H47.8059V24.535Z" fill="#0D0E14"/>
<path d="M58.3928 27.3157C57.3 27.3157 56.3137 27.084 55.434 26.6205C54.5677 26.1571 53.8813 25.495 53.3749 24.6344C52.8818 23.7737 52.6352 22.7674 52.6352 21.6153C52.6352 20.4766 52.8883 19.4769 53.3948 18.6162C53.9013 17.7423 54.5944 17.0736 55.474 16.6102C56.3537 16.1468 57.3399 15.915 58.4328 15.915C59.5257 15.915 60.512 16.1468 61.3916 16.6102C62.2713 17.0736 62.9643 17.7423 63.4708 18.6162C63.9772 19.4769 64.2305 20.4766 64.2305 21.6153C64.2305 22.7541 63.9705 23.7604 63.4508 24.6344C62.9444 25.495 62.2446 26.1571 61.3516 26.6205C60.472 27.084 59.4857 27.3157 58.3928 27.3157ZM58.3928 24.3761C59.0459 24.3761 59.599 24.1378 60.0522 23.6611C60.5187 23.1844 60.7519 22.5025 60.7519 21.6153C60.7519 20.7282 60.5253 20.0463 60.0721 19.5696C59.6323 19.0929 59.0859 18.8545 58.4328 18.8545C57.7664 18.8545 57.2133 19.0929 56.7735 19.5696C56.3336 20.033 56.1137 20.7149 56.1137 21.6153C56.1137 22.5025 56.327 23.1844 56.7535 23.6611C57.1934 24.1378 57.7398 24.3761 58.3928 24.3761Z" fill="#0D0E14"/>
<path d="M69.6827 15.915C70.469 15.915 71.1555 16.0739 71.7419 16.3917C72.3416 16.7095 72.8015 17.1266 73.1214 17.643V16.0739H76.5399V27.1369C76.5399 28.1565 76.3334 29.0768 75.9202 29.8976C75.5203 30.7319 74.9006 31.3939 74.061 31.8838C73.2346 32.3738 72.2017 32.6188 70.9622 32.6188C69.3095 32.6188 67.9701 32.2282 66.9438 31.4469C65.9176 30.6789 65.3311 29.6328 65.1845 28.3087H68.5632C68.6698 28.7324 68.923 29.0635 69.3229 29.3019C69.7227 29.5534 70.2159 29.6792 70.8023 29.6792C71.5087 29.6792 72.0684 29.4739 72.4816 29.0635C72.9081 28.6663 73.1214 28.0241 73.1214 27.1369V25.5679C72.7881 26.0842 72.3283 26.508 71.7419 26.839C71.1555 27.1568 70.469 27.3157 69.6827 27.3157C68.7631 27.3157 67.9301 27.084 67.1837 26.6205C66.4373 26.1438 65.8442 25.4751 65.4045 24.6144C64.978 23.7406 64.7647 22.7343 64.7647 21.5955C64.7647 20.4567 64.978 19.4571 65.4045 18.5964C65.8442 17.7357 66.4373 17.0736 67.1837 16.6102C67.9301 16.1468 68.7631 15.915 69.6827 15.915ZM73.1214 21.6153C73.1214 20.7679 72.8815 20.0992 72.4016 19.6093C71.9352 19.1194 71.362 18.8744 70.6823 18.8744C70.0026 18.8744 69.4228 19.1194 68.943 19.6093C68.4765 20.086 68.2433 20.7481 68.2433 21.5955C68.2433 22.4429 68.4765 23.1182 68.943 23.6214C69.4228 24.1113 70.0026 24.3563 70.6823 24.3563C71.362 24.3563 71.9352 24.1113 72.4016 23.6214C72.8815 23.1314 73.1214 22.4628 73.1214 21.6153Z" fill="#0D0E14"/>
<path d="M83.4913 27.3157C82.3985 27.3157 81.4122 27.084 80.5326 26.6205C79.6663 26.1571 78.9798 25.495 78.4734 24.6344C77.9803 23.7737 77.7337 22.7674 77.7337 21.6153C77.7337 20.4766 77.9869 19.4769 78.4934 18.6162C78.9999 17.7423 79.6929 17.0736 80.5725 16.6102C81.4522 16.1468 82.4385 15.915 83.5313 15.915C84.6242 15.915 85.6105 16.1468 86.4901 16.6102C87.3698 17.0736 88.0628 17.7423 88.5693 18.6162C89.0757 19.4769 89.329 20.4766 89.329 21.6153C89.329 22.7541 89.0691 23.7604 88.5493 24.6344C88.0429 25.495 87.3432 26.1571 86.4501 26.6205C85.5705 27.084 84.5842 27.3157 83.4913 27.3157ZM83.4913 24.3761C84.1444 24.3761 84.6975 24.1378 85.1507 23.6611C85.6172 23.1844 85.8504 22.5025 85.8504 21.6153C85.8504 20.7282 85.6238 20.0463 85.1707 19.5696C84.7308 19.0929 84.1844 18.8545 83.5313 18.8545C82.8649 18.8545 82.3118 19.0929 81.872 19.5696C81.4322 20.033 81.2123 20.7149 81.2123 21.6153C81.2123 22.5025 81.4255 23.1844 81.852 23.6611C82.2919 24.1378 82.8383 24.3761 83.4913 24.3761Z" fill="#0D0E14"/>
<path d="M92.2621 14.922C91.6623 14.922 91.1692 14.7498 90.7827 14.4056C90.4094 14.0481 90.2229 13.6111 90.2229 13.0947C90.2229 12.5651 90.4094 12.1281 90.7827 11.7838C91.1692 11.4263 91.6623 11.2476 92.2621 11.2476C92.8485 11.2476 93.3283 11.4263 93.7014 11.7838C94.0879 12.1281 94.2812 12.5651 94.2812 13.0947C94.2812 13.6111 94.0879 14.0481 93.7014 14.4056C93.3283 14.7498 92.8485 14.922 92.2621 14.922ZM93.9613 16.074V27.1568H90.5428V16.074H93.9613Z" fill="#0D0E14"/>
<path d="M99.2574 17.643C99.5905 17.1266 100.05 16.7095 100.637 16.3917C101.224 16.0739 101.91 15.915 102.696 15.915C103.616 15.915 104.449 16.1468 105.195 16.6102C105.942 17.0736 106.528 17.7357 106.954 18.5964C107.394 19.4571 107.615 20.4567 107.615 21.5955C107.615 22.7343 107.394 23.7406 106.954 24.6144C106.528 25.4751 105.942 26.1438 105.195 26.6205C104.449 27.084 103.616 27.3157 102.696 27.3157C101.923 27.3157 101.237 27.1568 100.637 26.839C100.05 26.5212 99.5905 26.1107 99.2574 25.6076V32.44H95.8391V16.0739H99.2574V17.643ZM104.136 21.5955C104.136 20.7481 103.896 20.086 103.416 19.6093C102.949 19.1194 102.37 18.8744 101.677 18.8744C100.997 18.8744 100.417 19.1194 99.9371 19.6093C99.4714 20.0992 99.238 20.7679 99.238 21.6153C99.238 22.4628 99.4714 23.1314 99.9371 23.6214C100.417 24.1113 100.997 24.3563 101.677 24.3563C102.357 24.3563 102.936 24.1113 103.416 23.6214C103.896 23.1182 104.136 22.4429 104.136 21.5955Z" fill="#0D0E14"/>
<path d="M113.346 27.3157C112.373 27.3157 111.507 27.1501 110.747 26.8192C109.988 26.4881 109.388 26.0379 108.948 25.4685C108.508 24.8859 108.262 24.2371 108.208 23.522H111.587C111.627 23.906 111.807 24.2172 112.127 24.4555C112.447 24.6939 112.84 24.8131 113.307 24.8131C113.733 24.8131 114.059 24.7336 114.286 24.5747C114.526 24.4026 114.646 24.1841 114.646 23.9193C114.646 23.6015 114.479 23.3698 114.146 23.2241C113.813 23.0652 113.273 22.8932 112.526 22.7077C111.727 22.5224 111.061 22.3304 110.527 22.1317C109.995 21.9199 109.535 21.5955 109.148 21.1585C108.761 20.7084 108.568 20.1058 108.568 19.3512C108.568 18.7155 108.742 18.1396 109.088 17.6231C109.448 17.0935 109.967 16.6764 110.647 16.3718C111.34 16.0673 112.16 15.915 113.106 15.915C114.505 15.915 115.605 16.2593 116.405 16.9478C117.218 17.6364 117.685 18.55 117.805 19.6888H114.646C114.592 19.3048 114.419 19.0003 114.126 18.7751C113.846 18.55 113.473 18.4375 113.007 18.4375C112.607 18.4375 112.3 18.5169 112.087 18.6758C111.874 18.8214 111.767 19.0267 111.767 19.2915C111.767 19.6093 111.934 19.8477 112.267 20.0066C112.614 20.1655 113.146 20.3244 113.866 20.4832C114.692 20.6951 115.365 20.907 115.885 21.1188C116.405 21.3174 116.858 21.6484 117.244 22.1119C117.644 22.5621 117.851 23.1711 117.865 23.9392C117.865 24.588 117.678 25.1706 117.304 25.687C116.945 26.1902 116.418 26.5874 115.725 26.8787C115.046 27.1701 114.253 27.3157 113.346 27.3157Z" fill="#0D0E14"/>
<path d="M130.372 16.074V27.1568H126.953V25.6473C126.607 26.1372 126.133 26.5345 125.534 26.839C124.947 27.1304 124.295 27.276 123.574 27.276C122.721 27.276 121.968 27.0906 121.315 26.7198C120.662 26.3359 120.156 25.7863 119.796 25.0714C119.436 24.3563 119.256 23.5155 119.256 22.5488V16.074H122.654V22.0921C122.654 22.8336 122.848 23.4095 123.234 23.8201C123.621 24.2305 124.141 24.4358 124.794 24.4358C125.46 24.4358 125.987 24.2305 126.373 23.8201C126.76 23.4095 126.953 22.8336 126.953 22.0921V16.074H130.372Z" fill="#0D0E14"/>
<path d="M146.462 15.9546C147.847 15.9546 148.947 16.3717 149.761 17.2059C150.586 18.04 151 19.1986 151 20.6816V27.1566H147.602V21.1385C147.602 20.4235 147.408 19.8739 147.022 19.49C146.648 19.0927 146.129 18.8941 145.462 18.8941C144.796 18.8941 144.269 19.0927 143.883 19.49C143.51 19.8739 143.323 20.4235 143.323 21.1385V27.1566H139.924V21.1385C139.924 20.4235 139.731 19.8739 139.345 19.49C138.971 19.0927 138.451 18.8941 137.785 18.8941C137.119 18.8941 136.592 19.0927 136.206 19.49C135.832 19.8739 135.646 20.4235 135.646 21.1385V27.1566H132.228V16.0738H135.646V17.4641C135.993 17.0006 136.446 16.6365 137.006 16.3717C137.565 16.0936 138.199 15.9546 138.904 15.9546C139.745 15.9546 140.491 16.1333 141.144 16.4908C141.81 16.8484 142.33 17.3582 142.704 18.0202C143.09 17.4111 143.616 16.9145 144.283 16.5306C144.949 16.1466 145.676 15.9546 146.462 15.9546Z" fill="#0D0E14"/>
</g>
<defs>
<clipPath id="clip0_8_184">
<rect width="150.068" height="40" fill="white" transform="translate(0.931885)"/>
</clipPath>
</defs>
</svg>
