<svg width="151" height="40" viewBox="0 0 151 40" fill="none" xmlns="http://www.w3.org/2000/svg">
<path d="M75.5948 26.288H70.5399V12.8619H75.5948V26.288ZM71.0335 25.7975H75.1011V13.3524H71.0335V25.7975ZM82.6282 26.288H77.675V12.8619H88.0238C89.5063 12.7427 90.9827 13.1562 92.1842 14.0272C92.7015 14.4973 93.1024 15.0799 93.3556 15.7293C93.609 16.3787 93.7078 17.0775 93.6444 17.7712C93.7183 18.9697 93.3343 20.1519 92.5693 21.0816C91.6639 22.1134 90.1573 22.6451 88.0919 22.6637C87.5716 22.6774 83.6728 22.6637 82.6312 22.6637L82.6282 26.288ZM78.1657 25.7975H82.1346V22.1684H82.3824C82.4328 22.1684 87.4946 22.1841 88.0801 22.1684C90.0043 22.1517 91.3875 21.6779 92.1961 20.753C92.8771 19.9118 93.2153 18.8473 93.1439 17.7702C93.2046 17.1487 93.1204 16.5216 92.8978 15.9377C92.6752 15.3537 92.3203 14.8285 91.8604 14.4029C90.7463 13.6085 89.3833 13.2356 88.0169 13.3514H78.1687L78.1657 25.7975ZM86.9753 19.6475H82.101V15.9929H87.0079C87.3557 15.9451 87.71 15.9854 88.0379 16.1101C88.3659 16.2348 88.6568 16.4397 88.8837 16.7059C89.0896 17.0462 89.1866 17.4406 89.1621 17.8369C89.1806 18.2048 89.1006 18.571 88.9301 18.8982C88.696 19.1786 88.3932 19.3944 88.0508 19.525C87.7085 19.6555 87.3381 19.6964 86.9753 19.6436V19.6475ZM82.5947 19.1571H86.9753C87.7849 19.1571 88.2864 18.9894 88.5085 18.6441C88.6309 18.3932 88.6863 18.1152 88.6695 17.8369C88.6911 17.5446 88.6273 17.2524 88.4858 16.9953L88.4799 16.9865C88.2449 16.6432 87.7779 16.4833 87.0079 16.4833H82.5947V19.1571ZM102.653 26.4861C98.2205 26.4861 95.5746 25.3925 94.5665 23.1433C94.4016 22.7089 94.2896 22.2564 94.2328 21.7956L94.1894 21.5131H99.4635L99.4981 21.7191C99.5386 21.9282 99.6284 22.1251 99.7587 22.2939C99.967 22.544 100.662 22.9638 102.968 22.9638C105.741 22.9638 105.741 22.4803 105.741 22.2203C105.741 21.7819 105.42 21.6318 103.159 21.3925L102.729 21.3523C101.878 21.2728 100.802 21.1718 100.311 21.1296C96.164 20.7569 94.3128 19.4769 94.3128 16.9806C94.3128 14.3587 97.4633 12.6648 102.339 12.6648C106.317 12.6648 108.88 13.7065 109.955 15.7633C110.21 16.2418 110.382 16.7599 110.462 17.2954L110.496 17.5711H105.216L105.195 17.3494C105.174 17.1761 105.1 17.0136 104.981 16.8845C104.784 16.6216 104.16 16.1871 102.223 16.1871C99.8446 16.1871 99.5168 16.4892 99.5168 16.8148C99.5168 17.2493 100.268 17.4033 102.676 17.6593C103.68 17.7408 105.294 17.9055 105.847 17.9722C109.324 18.3469 110.875 19.5956 110.875 22.0222C110.876 24.0575 109.449 26.4861 102.653 26.4861ZM94.766 22.0036C94.8154 22.3271 94.9005 22.6441 95.0197 22.9491C95.9379 24.9981 98.4357 25.9957 102.653 25.9957C106.18 25.9957 110.385 25.3091 110.385 22.0222C110.385 19.8712 109.013 18.806 105.795 18.4597C105.242 18.393 103.638 18.2292 102.636 18.1468C100.069 17.8702 99.0252 17.7231 99.0252 16.8148C99.0252 15.8752 100.15 15.6966 102.225 15.6966C103.865 15.6966 104.924 15.9909 105.373 16.5843C105.496 16.7305 105.589 16.8991 105.646 17.0806H109.925C109.839 16.7013 109.703 16.3349 109.52 15.9909C108.533 14.1086 106.121 13.1552 102.341 13.1552C97.7654 13.1552 94.8084 14.6569 94.8084 16.9806C94.8084 19.1973 96.4681 20.292 100.356 20.6412C100.85 20.6833 101.925 20.7844 102.778 20.8648L103.21 20.905C105.31 21.1247 106.236 21.262 106.236 22.2203C106.236 23.2522 105.039 23.4543 102.97 23.4543C101.057 23.4543 99.8486 23.1688 99.3816 22.6068C99.2376 22.4276 99.129 22.2229 99.0617 22.0036H94.766ZM120.254 26.4694C115.1 26.4694 112.257 24.3988 112.257 20.6382V12.8619H117.245V20.6382C117.245 21.928 118.407 22.6676 120.432 22.6676C122.367 22.6676 123.568 21.8957 123.568 20.6549V12.8619H128.505V21.0502C128.51 24.494 125.499 26.4694 120.251 26.4694H120.254ZM112.75 13.3524V20.6382C112.75 25.2855 117.448 25.979 120.254 25.979C123.155 25.979 128.019 25.3385 128.019 21.0502V13.3524H124.07V20.6549C124.07 22.1752 122.644 23.158 120.439 23.158C118.135 23.158 116.759 22.2164 116.759 20.6382V13.3524H112.75ZM149.423 26.288H144.716V20.2263L142.046 26.288H137.94L135.298 20.238V26.288H130.574V12.8619H136.788L140.016 20.2645L143.401 12.8619H149.429L149.423 26.288ZM145.21 25.7975H148.93V13.3524H143.715L140.001 21.4729L136.46 13.3524H131.064V25.7975H134.801V17.8781L138.256 25.8005H141.712L145.204 17.8898L145.21 25.7975ZM6.84093 13.1072H2.34481V26.0428H14.7689V22.599H6.84093V13.1072ZM23.844 12.8129C18.1049 12.8129 15.0868 15.5152 15.0868 19.4828C15.0868 23.9653 18.255 26.2389 23.844 26.2389C29.9968 26.2389 32.5845 23.6024 32.5845 19.4828C32.5845 15.2994 29.6651 12.8109 23.844 12.8109V12.8129ZM23.8272 16.1743C24.2179 16.1725 24.6084 16.1951 24.9962 16.242L19.9699 21.2356C19.7321 20.7011 19.6161 20.1209 19.6303 19.5367C19.6303 17.5073 20.659 16.1724 23.8272 16.1724V16.1743ZM23.844 22.9305C23.4676 22.9322 23.0914 22.9112 22.7175 22.8677L27.7527 17.8653C27.9817 18.391 28.0913 18.9603 28.0736 19.5328C28.0736 21.5073 27.1258 22.9285 23.844 22.9285V22.9305ZM41.4928 21.1649H46.1203C46.0521 21.484 45.9102 21.7829 45.7056 22.0379C44.7462 22.8144 43.5219 23.1922 42.2886 23.0923C41.6678 23.1583 41.0401 23.091 40.4478 22.8948C39.8555 22.6987 39.3125 22.3784 38.8558 21.9555C38.3879 21.2737 38.1657 20.4549 38.2249 19.6319C38.1492 18.7694 38.3909 17.909 38.9051 17.2101C39.5518 16.4843 40.6467 16.1714 42.256 16.1714C43.2799 16.0871 44.3026 16.3484 45.1586 16.9129C45.4285 17.1258 45.6302 17.4121 45.7392 17.7368H50.0309C49.9997 17.2017 49.8702 16.6768 49.6488 16.188C48.6211 14.1116 46.2318 12.8757 42.1691 12.8757C38.6356 12.8757 36.2641 13.9468 34.954 15.5623C34.0887 16.7289 33.6446 18.1512 33.6932 19.5995C33.6373 21.0806 34.07 22.5392 34.9254 23.7534C36.2197 25.4209 38.525 26.2409 41.2954 26.2409C43.1372 26.3685 44.9664 25.856 46.4697 24.7912L46.5863 26.0428H50.1514V18.3803H41.4928V21.1649ZM60.2701 12.81C54.532 12.81 51.5128 15.5122 51.5128 19.4798C51.5128 23.9624 54.68 26.236 60.2701 26.236C66.4239 26.236 69.0115 23.5994 69.0115 19.4798C69.0115 15.2994 66.0921 12.8109 60.2701 12.8109V12.81ZM60.2543 16.1714C60.6347 16.1703 61.0148 16.1919 61.3926 16.2361L56.3861 21.213C56.1557 20.6844 56.0435 20.1126 56.0573 19.5367C56.0534 17.5073 57.0861 16.1724 60.2543 16.1724V16.1714ZM60.2701 22.9275C59.8837 22.9292 59.4975 22.9068 59.114 22.8608L64.1659 17.8408C64.4036 18.3734 64.5173 18.9524 64.4986 19.5347C64.5006 21.5073 63.5568 22.9285 60.2701 22.9285V22.9275Z" fill="#0D0E14"/>
</svg>
