<svg width="151" height="40" viewBox="0 0 151 40" fill="none" xmlns="http://www.w3.org/2000/svg">
<g clip-path="url(#clip0_8_150)">
<path d="M24.1401 26.3636H31.7716L12.8668 7.27271H5.23517L24.1401 26.3636Z" fill="#728095"/>
<path d="M16.2158 7.27271L35.4318 25.4545V7.27271H30.2316V13.013L24.1647 7.27271L16.2158 7.27271Z" fill="#4B5567"/>
<path d="M1.57495 8.18188V26.3637H6.51449V20.6384L12.2772 26.3637H19.8759L1.57495 8.18188Z" fill="#A1AEBF"/>
<path d="M47.2325 23.6285H51.9027V26.3636H43.6672V11.8181H47.2325V23.6285Z" fill="#0D0E14"/>
<path d="M57.8095 26.3636C56.6883 26.3636 55.6764 26.1234 54.774 25.6429C53.8852 25.1625 53.1811 24.4762 52.6614 23.5841C52.1556 22.6918 51.9026 21.6486 51.9026 20.4544C51.9026 19.2741 52.1624 18.2377 52.682 17.3456C53.2016 16.4396 53.9126 15.7464 54.815 15.266C55.7175 14.7856 56.7292 14.5454 57.8505 14.5454C58.9717 14.5454 59.9835 14.7856 60.886 15.266C61.7884 15.7464 62.4993 16.4396 63.0189 17.3456C63.5386 18.2377 63.7983 19.2741 63.7983 20.4544C63.7983 21.6349 63.5317 22.6781 62.9984 23.5841C62.4789 24.4762 61.761 25.1625 60.8449 25.6429C59.9425 26.1234 58.9306 26.3636 57.8095 26.3636ZM57.8095 23.3164C58.4795 23.3164 59.0469 23.0693 59.5118 22.5752C59.9903 22.081 60.2296 21.3742 60.2296 20.4544C60.2296 19.5348 59.9972 18.828 59.5323 18.3338C59.0811 17.8397 58.5204 17.5926 57.8505 17.5926C57.1668 17.5926 56.5993 17.8397 56.1482 18.3338C55.6969 18.8142 55.4714 19.5212 55.4714 20.4544C55.4714 21.3742 55.6901 22.081 56.1276 22.5752C56.5789 23.0693 57.1395 23.3164 57.8095 23.3164Z" fill="#0D0E14"/>
<path d="M68.7666 14.5454C69.561 14.5454 70.2544 14.7097 70.8468 15.0383C71.4527 15.3669 71.9172 15.7983 72.2404 16.3322V14.7097H75.6939V26.1496C75.6939 27.2039 75.4852 28.1554 75.0678 29.0043C74.6639 29.8669 74.0378 30.5516 73.1895 31.0582C72.3548 31.5648 71.3113 31.8181 70.0592 31.8181C68.3895 31.8181 67.0365 31.4142 65.9997 30.6063C64.963 29.8122 64.3705 28.7305 64.2224 27.3613H67.6356C67.7433 27.7995 67.9991 28.1417 68.403 28.3882C68.807 28.6483 69.3051 28.7784 69.8976 28.7784C70.6112 28.7784 71.1766 28.5663 71.5941 28.1417C72.0249 27.731 72.2404 27.0669 72.2404 26.1496V24.527C71.9037 25.061 71.4392 25.4991 70.8468 25.8415C70.2544 26.17 69.561 26.3344 68.7666 26.3344C67.8376 26.3344 66.996 26.0948 66.2421 25.6155C65.488 25.1226 64.8889 24.4312 64.4446 23.5412C64.0138 22.6375 63.7983 21.5969 63.7983 20.4194C63.7983 19.2418 64.0138 18.2081 64.4446 17.3181C64.8889 16.4281 65.488 15.7435 66.2421 15.2642C66.996 14.785 67.8376 14.5454 68.7666 14.5454ZM72.2404 20.4399C72.2404 19.5636 71.998 18.8722 71.5133 18.3655C71.0421 17.8589 70.4631 17.6056 69.7764 17.6056C69.0897 17.6056 68.5041 17.8589 68.0194 18.3655C67.548 18.8584 67.3124 19.5431 67.3124 20.4194C67.3124 21.2957 67.548 21.9939 68.0194 22.5143C68.5041 23.0209 69.0897 23.2741 69.7764 23.2741C70.4631 23.2741 71.0421 23.0209 71.5133 22.5143C71.998 22.0077 72.2404 21.3162 72.2404 20.4399Z" fill="#0D0E14"/>
<path d="M82.9765 26.3636C81.9415 26.3636 81.0076 26.1234 80.1745 25.6429C79.3542 25.1625 78.7041 24.4762 78.2246 23.5841C77.7576 22.6918 77.524 21.6486 77.524 20.4544C77.524 19.2741 77.7639 18.2377 78.2434 17.3456C78.7231 16.4396 79.3794 15.7464 80.2124 15.266C81.0454 14.7856 81.9794 14.5454 83.0143 14.5454C84.0493 14.5454 84.9833 14.7856 85.8163 15.266C86.6492 15.7464 87.3056 16.4396 87.7852 17.3456C88.2648 18.2377 88.5046 19.2741 88.5046 20.4544C88.5046 21.6349 88.2585 22.6781 87.7663 23.5841C87.2866 24.4762 86.624 25.1625 85.7784 25.6429C84.9454 26.1234 84.0114 26.3636 82.9765 26.3636ZM82.9765 23.3164C83.5949 23.3164 84.1187 23.0693 84.5478 22.5752C84.9896 22.081 85.2105 21.3742 85.2105 20.4544C85.2105 19.5348 84.9959 18.828 84.5667 18.3338C84.1502 17.8397 83.6328 17.5926 83.0143 17.5926C82.3833 17.5926 81.8595 17.8397 81.443 18.3338C81.0264 18.8142 80.8182 19.5212 80.8182 20.4544C80.8182 21.3742 81.0202 22.081 81.424 22.5752C81.8405 23.0693 82.358 23.3164 82.9765 23.3164Z" fill="#0D0E14"/>
<path d="M91.7186 13.7794C91.0424 13.7794 90.4865 13.6023 90.0507 13.2482C89.6301 12.8805 89.4197 12.4311 89.4197 11.8999C89.4197 11.3551 89.6301 10.9057 90.0507 10.5516C90.4865 10.1839 91.0424 10 91.7186 10C92.3797 10 92.9206 10.1839 93.3413 10.5516C93.777 10.9057 93.9949 11.3551 93.9949 11.8999C93.9949 12.4311 93.777 12.8805 93.3413 13.2482C92.9206 13.6023 92.3797 13.7794 91.7186 13.7794ZM93.6343 14.9643V26.3636H89.7802V14.9643H93.6343Z" fill="#0D0E14"/>
<path d="M99.0127 16.3516C99.3239 15.8118 99.7524 15.3758 100.299 15.0437C100.846 14.7115 101.486 14.5454 102.22 14.5454C103.077 14.5454 103.854 14.7876 104.55 15.272C105.246 15.7564 105.793 16.4485 106.19 17.3481C106.601 18.2477 106.806 19.2926 106.806 20.4829C106.806 21.6732 106.601 22.7251 106.19 23.6385C105.793 24.5381 105.246 25.237 104.55 25.7353C103.854 26.2197 103.077 26.4619 102.22 26.4619C101.499 26.4619 100.858 26.2958 100.299 25.9637C99.7524 25.6315 99.3239 25.2024 99.0127 24.6765V31.8181H95.825V14.7115H99.0127V16.3516ZM103.562 20.4829C103.562 19.5971 103.338 18.9051 102.891 18.4068C102.456 17.8947 101.915 17.6387 101.269 17.6387C100.635 17.6387 100.094 17.8947 99.6469 18.4068C99.2121 18.919 98.9947 19.6179 98.9947 20.5036C98.9947 21.3894 99.2121 22.0884 99.6469 22.6005C100.094 23.1126 100.635 23.3686 101.269 23.3686C101.903 23.3686 102.443 23.1126 102.891 22.6005C103.338 22.0745 103.562 21.3687 103.562 20.4829Z" fill="#0D0E14"/>
<path d="M113.076 26.3636C112.062 26.3636 111.159 26.192 110.368 25.8488C109.575 25.5057 108.95 25.039 108.492 24.4488C108.033 23.8449 107.776 23.1722 107.721 22.431H111.243C111.284 22.8291 111.472 23.1517 111.806 23.3988C112.138 23.6458 112.549 23.7694 113.035 23.7694C113.479 23.7694 113.819 23.687 114.056 23.5223C114.306 23.3439 114.431 23.1173 114.431 22.8429C114.431 22.5134 114.257 22.2732 113.91 22.1222C113.562 21.9575 112.999 21.7791 112.222 21.5869C111.388 21.3947 110.693 21.1957 110.138 20.9898C109.582 20.7702 109.103 20.4339 108.7 19.9809C108.297 19.5143 108.096 18.8897 108.096 18.1073C108.096 17.4485 108.276 16.8514 108.637 16.316C109.012 15.767 109.555 15.3347 110.263 15.019C110.986 14.7033 111.84 14.5454 112.826 14.5454C114.285 14.5454 115.432 14.9023 116.265 15.616C117.113 16.3298 117.599 17.2769 117.724 18.4574H114.431C114.375 18.0593 114.194 17.7436 113.889 17.5102C113.597 17.2769 113.208 17.1603 112.722 17.1603C112.306 17.1603 111.986 17.2425 111.763 17.4073C111.541 17.5583 111.43 17.7711 111.43 18.0455C111.43 18.375 111.604 18.622 111.951 18.7867C112.312 18.9515 112.868 19.1162 113.619 19.2809C114.48 19.5005 115.182 19.7201 115.723 19.9398C116.265 20.1456 116.737 20.4888 117.14 20.9692C117.557 21.4359 117.772 22.0673 117.786 22.8634C117.786 23.536 117.592 24.14 117.202 24.6753C116.827 25.1969 116.279 25.6086 115.557 25.9106C114.848 26.2126 114.021 26.3636 113.076 26.3636Z" fill="#0D0E14"/>
<path d="M129.682 15.4546V26.2476H126.305V24.7777C125.962 25.2548 125.495 25.6416 124.903 25.9382C124.323 26.2219 123.678 26.3637 122.967 26.3637C122.124 26.3637 121.38 26.1832 120.735 25.8222C120.09 25.4482 119.59 24.913 119.234 24.2167C118.879 23.5203 118.701 22.7016 118.701 21.7602V15.4546H122.058V21.3153C122.058 22.0375 122.25 22.5984 122.631 22.9981C123.013 23.3979 123.526 23.5977 124.171 23.5977C124.83 23.5977 125.35 23.3979 125.732 22.9981C126.114 22.5984 126.305 22.0375 126.305 21.3153V15.4546H129.682Z" fill="#0D0E14"/>
<path d="M146.082 15.4546C147.501 15.4546 148.627 15.8608 149.458 16.6731C150.305 17.4855 150.728 18.6139 150.728 20.0581V26.3637H147.248V20.5029C147.248 19.8066 147.051 19.2715 146.655 18.8975C146.273 18.5107 145.741 18.3173 145.059 18.3173C144.377 18.3173 143.838 18.5107 143.442 18.8975C143.061 19.2715 142.87 19.8066 142.87 20.5029V26.3637H139.39V20.5029C139.39 19.8066 139.193 19.2715 138.797 18.8975C138.415 18.5107 137.883 18.3173 137.201 18.3173C136.518 18.3173 135.98 18.5107 135.584 18.8975C135.202 19.2715 135.011 19.8066 135.011 20.5029V26.3637H131.512V15.5706H135.011V16.9246C135.366 16.4733 135.829 16.1187 136.403 15.8608C136.976 15.59 137.623 15.4546 138.346 15.4546C139.206 15.4546 139.97 15.6287 140.639 15.9768C141.321 16.325 141.853 16.8215 142.235 17.4662C142.631 16.873 143.17 16.3895 143.852 16.0155C144.534 15.6416 145.278 15.4546 146.082 15.4546Z" fill="#0D0E14"/>
</g>
<defs>
<clipPath id="clip0_8_150">
<rect width="150.068" height="40" fill="white" transform="translate(0.659912)"/>
</clipPath>
</defs>
</svg>
