<svg width="151" height="40" viewBox="0 0 151 40" fill="none" xmlns="http://www.w3.org/2000/svg">
<path d="M45.1652 12.8265H48.818V27.4999H45.1652V12.8265ZM50.267 21.9596C50.267 18.3306 52.5074 16.1652 55.9654 16.1652C59.4234 16.1652 61.6638 18.3306 61.6638 21.9596C61.6638 25.5886 59.4721 27.766 55.9654 27.766C52.4587 27.766 50.267 25.6491 50.267 21.9596ZM57.9988 21.9596C57.9988 19.9636 57.2074 18.7902 55.9654 18.7902C54.7234 18.7902 53.9442 19.9999 53.9442 21.9596C53.9442 23.9193 54.7113 25.1048 55.9654 25.1048C57.2195 25.1048 57.9988 23.9918 57.9988 21.9717V21.9596ZM63.0397 28.2136H66.5464C66.7133 28.582 66.9954 28.8869 67.3509 29.0831C67.7063 29.2792 68.116 29.3562 68.5189 29.3023C69.907 29.3023 70.6375 28.5523 70.6375 27.4636V25.4314H70.5645C70.2735 26.0542 69.8012 26.5761 69.2087 26.9298C68.6162 27.2834 67.9306 27.4525 67.2404 27.4152C64.5739 27.4152 62.8083 25.3951 62.8083 21.9233C62.8083 18.4515 64.4886 16.262 67.2891 16.262C68.0009 16.2343 68.7042 16.4234 69.3049 16.8038C69.9055 17.1844 70.3748 17.7382 70.6497 18.391V16.3709H74.3025V27.3789C74.3025 30.0281 71.9526 31.6733 68.4824 31.6733C65.2557 31.6733 63.2467 30.2338 63.0397 28.2257V28.2136ZM70.6497 21.9475C70.6497 20.1814 69.8339 19.0685 68.5433 19.0685C67.2526 19.0685 66.4612 20.1693 66.4612 21.9475C66.4612 23.7257 67.2404 24.7298 68.5433 24.7298C69.8461 24.7298 70.6497 23.7499 70.6497 21.9596V21.9475ZM75.6784 21.9475C75.6784 18.3185 77.9188 16.1531 81.3768 16.1531C84.8348 16.1531 87.0874 18.3185 87.0874 21.9475C87.0874 25.5765 84.8957 27.7539 81.3768 27.7539C77.8579 27.7539 75.6784 25.6491 75.6784 21.9596V21.9475ZM83.4102 21.9475C83.4102 19.9515 82.6188 18.7781 81.3768 18.7781C80.1349 18.7781 79.4165 19.9999 79.4165 21.9717C79.4165 23.9435 80.1836 25.1168 81.4255 25.1168C82.6675 25.1168 83.4102 23.9918 83.4102 21.9717V21.9475ZM88.4755 13.7338C88.4658 13.3674 88.566 13.0064 88.7632 12.6966C88.9604 12.3868 89.2457 12.1422 89.583 11.9937C89.9203 11.8452 90.2943 11.7995 90.6578 11.8625C91.0212 11.9255 91.3577 12.0942 91.6244 12.3474C91.8913 12.6005 92.0764 12.9267 92.1564 13.2845C92.2364 13.6423 92.2077 14.0156 92.0737 14.3573C91.9399 14.6987 91.707 14.9932 91.4045 15.2031C91.1022 15.4129 90.7437 15.5289 90.3749 15.5362C90.1304 15.5529 89.8851 15.5191 89.6543 15.4371C89.4235 15.3551 89.2123 15.2266 89.034 15.0596C88.8556 14.8927 88.7139 14.6908 88.6178 14.4667C88.5216 14.2428 88.4731 14.0015 88.4755 13.758V13.7338ZM88.4755 16.3951H92.1283V27.4999H88.4755V16.3951ZM105.388 21.9475C105.388 25.5765 103.769 27.6451 100.992 27.6451C100.281 27.6904 99.5719 27.5176 98.9621 27.1498C98.3523 26.782 97.871 26.237 97.5831 25.5886H97.5101V31.0564H93.8573V16.3709H97.5101V18.3548H97.5831C97.8576 17.6956 98.3298 17.1365 98.9354 16.7534C99.5411 16.3703 100.251 16.1818 100.968 16.2136C103.769 16.262 105.437 18.3427 105.437 21.9717L105.388 21.9475ZM101.735 21.9475C101.735 20.1814 100.919 19.0564 99.6409 19.0564C98.3624 19.0564 97.5466 20.1935 97.5344 21.9475C97.5223 23.7015 98.3624 24.8265 99.6409 24.8265C100.919 24.8265 101.735 23.7257 101.735 21.9717V21.9475ZM111.659 16.141C114.691 16.141 116.529 17.5685 116.614 19.8548H113.29C113.29 19.0685 112.633 18.5725 111.622 18.5725C110.612 18.5725 110.161 18.9596 110.161 19.5281C110.161 20.0967 110.563 20.2781 111.379 20.4475L113.716 20.9193C115.945 21.391 116.894 22.2862 116.894 23.9677C116.894 26.266 114.788 27.7418 111.683 27.7418C108.578 27.7418 106.545 26.266 106.386 24.0039H109.905C110.015 24.8265 110.672 25.3104 111.744 25.3104C112.815 25.3104 113.302 24.9596 113.302 24.3789C113.302 23.7983 112.962 23.6773 112.085 23.4959L109.978 23.0483C107.799 22.6007 106.654 21.4515 106.654 19.758C106.679 17.5806 108.639 16.1652 111.659 16.1652V16.141ZM129.083 27.4757H125.564V25.4072H125.491C125.297 26.1016 124.871 26.7095 124.282 27.1299C123.692 27.5501 122.976 27.7576 122.252 27.7177C121.697 27.749 121.142 27.6616 120.624 27.4614C120.105 27.2612 119.637 26.953 119.249 26.5573C118.861 26.1618 118.563 25.6879 118.375 25.1681C118.188 24.6483 118.115 24.0946 118.161 23.5443V16.3709H121.813V22.7096C121.813 24.0281 122.495 24.7298 123.628 24.7298C123.893 24.7302 124.156 24.6745 124.398 24.566C124.64 24.4575 124.856 24.2987 125.032 24.1006C125.206 23.9023 125.337 23.6692 125.414 23.4169C125.491 23.1644 125.514 22.8985 125.478 22.637V16.3709H129.131L129.083 27.4757ZM130.848 16.3709H134.379V18.512H134.452C134.646 17.8267 135.063 17.2246 135.638 16.8C136.213 16.3754 136.914 16.1521 137.63 16.1652C138.36 16.1073 139.083 16.3239 139.659 16.7723C140.233 17.2206 140.618 17.8675 140.735 18.5846H140.808C141.029 17.8599 141.486 17.2289 142.109 16.7909C142.73 16.3529 143.481 16.1327 144.242 16.1652C144.739 16.1487 145.233 16.2361 145.693 16.4219C146.155 16.6076 146.57 16.8877 146.914 17.2435C147.259 17.5996 147.524 18.0235 147.694 18.4879C147.862 18.9523 147.931 19.447 147.895 19.9394V27.4999H144.242V20.9072C144.242 19.6975 143.694 19.141 142.671 19.141C142.443 19.1391 142.217 19.1858 142.009 19.278C141.8 19.3702 141.614 19.5056 141.463 19.6754C141.312 19.8451 141.199 20.0449 141.132 20.2616C141.065 20.4783 141.047 20.7067 141.076 20.9314V27.4999H137.606V20.8588C137.606 19.7459 137.058 19.141 136.059 19.141C135.829 19.1412 135.6 19.1898 135.391 19.2838C135.18 19.3779 134.992 19.5152 134.839 19.6866C134.686 19.858 134.572 20.0598 134.502 20.2786C134.434 20.4973 134.412 20.728 134.44 20.9556V27.4999H130.787L130.848 16.3709Z" fill="#0D0E14"/>
<path d="M34.9494 13.4921C34.3298 12.0844 33.5097 10.7726 32.5142 9.5969C31.0427 7.80699 29.2064 6.34697 27.126 5.31295C25.0456 4.27894 22.7683 3.69436 20.4441 3.5977C18.1199 3.50103 15.8015 3.89447 13.6413 4.75213C11.4813 5.60978 9.52848 6.9122 7.91153 8.57367C6.29458 10.2351 5.05012 12.218 4.26008 14.3917C3.47004 16.5654 3.1523 18.8807 3.32781 21.1851C3.50333 23.4897 4.16808 25.7311 5.27834 27.7619C6.3886 29.7928 7.91919 31.5671 9.76937 32.9679C10.9565 33.8847 12.2683 34.63 13.6657 35.1816C15.6248 35.9792 17.7217 36.39 19.839 36.3913C24.2094 36.3817 28.3977 34.6509 31.486 31.5783C34.574 28.5057 36.31 24.3421 36.3132 20.0001C36.3163 17.7604 35.852 15.5444 34.9494 13.4921ZM19.8268 6.9235C21.7282 6.92331 23.6066 7.33617 25.3304 8.13318C24.91 8.31363 24.468 8.43966 24.0153 8.50819C22.5257 8.72241 21.1458 9.40948 20.0815 10.4669C19.0172 11.5242 18.3256 12.8952 18.11 14.3751C18.0153 15.2051 17.6353 15.9772 17.0342 16.5613C16.4331 17.1453 15.6476 17.5053 14.8102 17.5808C13.3206 17.795 11.9407 18.4821 10.8764 19.5395C9.81208 20.5969 9.12049 21.9678 8.90487 23.4477C8.83186 24.2369 8.49294 24.9785 7.94296 25.5525C6.99402 23.5606 6.56773 21.3623 6.70377 19.1627C6.8398 16.963 7.53372 14.8332 8.72097 12.9715C9.90821 11.11 11.5502 9.57695 13.4941 8.51525C15.438 7.45356 17.6207 6.89767 19.839 6.89931L19.8268 6.9235ZM9.75719 28.4679C9.9033 28.3348 10.0494 28.2138 10.1955 28.0687C11.2788 27.0253 11.9741 25.648 12.168 24.1614C12.2467 23.3258 12.6222 22.5453 13.2274 21.9598C13.8097 21.3576 14.5935 20.9876 15.4312 20.9195C16.9208 20.7052 18.3008 20.0181 19.3651 18.9608C20.4294 17.9034 21.121 16.5325 21.3366 15.0525C21.3893 14.1786 21.7668 13.3551 22.3959 12.7421C22.9927 12.1516 23.7839 11.795 24.6241 11.738C25.9926 11.551 27.2689 10.9465 28.277 10.0082C29.4248 10.9542 30.3972 12.0923 31.1505 13.3711C31.1042 13.4331 31.0512 13.49 30.9922 13.5404C30.4111 14.1479 29.6283 14.5261 28.7884 14.605C27.2972 14.8154 25.9152 15.5013 24.8501 16.5593C23.7852 17.6174 23.0948 18.9904 22.883 20.4719C22.7971 21.3046 22.4242 22.0823 21.8273 22.6731C21.2303 23.2641 20.4462 23.6317 19.6076 23.7138C18.1136 23.9264 16.7286 24.6121 15.6581 25.669C14.5877 26.7261 13.8889 28.0978 13.6657 29.5808C13.6002 30.1719 13.3958 30.7396 13.0691 31.238C11.8198 30.5011 10.7009 29.5653 9.75719 28.4679ZM19.8268 33.1372C18.5913 33.1385 17.3616 32.9675 16.174 32.6292C16.5803 31.8767 16.8444 31.0567 16.9532 30.2098C17.0386 29.3789 17.4098 28.6026 18.0043 28.0121C18.5987 27.4215 19.38 27.0527 20.2164 26.9679C21.7082 26.7561 23.0909 26.07 24.1577 25.0124C25.2243 23.9549 25.9177 22.5825 26.134 21.1009C26.2193 20.27 26.5906 19.4938 27.185 18.9032C27.7794 18.3126 28.5608 17.9438 29.3972 17.859C30.5198 17.714 31.5898 17.2987 32.5142 16.6493C33.0276 18.5823 33.0883 20.6063 32.692 22.5662C32.2957 24.5261 31.4526 26.3699 30.2277 27.9559C29.0028 29.5418 27.4285 30.8281 25.6255 31.7157C23.8226 32.6034 21.839 33.069 19.8268 33.0767V33.1372Z" fill="#0D0E14"/>
</svg>
