<svg width="144" height="144" viewBox="0 0 144 144" fill="none" xmlns="http://www.w3.org/2000/svg">
<path d="M99.5112 89.2779C105.237 80.1453 106.061 68.7686 101.713 58.9066C97.3648 49.044 88.4105 41.9788 77.8066 40.0448C67.2037 38.11 56.3311 41.5597 48.781 49.2523C41.2317 56.9447 37.9873 67.8807 40.1201 78.4451C42.2518 89.0109 49.4839 97.8314 59.4264 101.993C69.3689 106.155 80.7277 105.118 89.7526 99.222L81.2525 90.7219C75.2977 93.6717 68.296 93.621 62.3847 90.585C56.4726 87.55 52.3519 81.8898 51.2788 75.3317C50.2046 68.7735 52.3063 62.0951 56.9422 57.3326C61.577 52.5712 68.1962 50.2903 74.7814 51.1872C81.3666 52.0841 87.1346 56.0511 90.3281 61.8793C93.5215 67.7075 93.7612 74.7042 90.973 80.7368L99.5112 89.2779Z" fill="#BDB0EC"/>
<path d="M123.873 110.354H114.021L81.8152 78.1482C83.8496 74.8737 84.1192 70.8019 82.5338 67.2881C80.9494 63.7742 77.7174 61.2815 73.9164 60.6396C70.1164 59.9978 66.2458 61.2918 63.5943 64.0903C60.9441 66.8888 59.8617 70.8247 60.7087 74.5844C61.5559 78.3451 64.2205 81.4369 67.8145 82.8286C71.4093 84.2211 75.4615 83.7307 78.6196 81.5211L110.735 113.636V123.491L125.233 137.991V124.851H138.373L123.873 110.354Z" fill="#0F0F0F"/>
<path d="M16.2487 39.3573L16.2601 44.127L20.9053 44.1156L20.8949 39.3595C23.6332 38.9738 25.986 37.2204 27.138 34.7061C28.2889 32.1917 28.0805 29.2646 26.5843 26.9389C25.0871 24.6142 22.5093 23.2113 19.744 23.2185H17.4214C15.497 23.2185 13.9376 21.658 13.9376 19.7346C13.9376 17.8102 15.497 16.2508 17.4214 16.2508H19.744C21.6674 16.2528 23.2258 17.8112 23.2279 19.7346V20.8959H27.873V19.7346C27.8668 17.7832 27.1597 15.9004 25.8791 14.4291C24.5986 12.9577 22.8309 11.9976 20.9001 11.7219L20.8887 6.95435L16.2446 6.96575L16.2549 11.7229C13.5196 12.1149 11.1724 13.8713 10.0243 16.3845C8.87756 18.8979 9.08806 21.8228 10.5853 24.1454C12.0825 26.468 14.6582 27.8697 17.4214 27.8636H19.7439C21.6684 27.8636 23.2278 29.4231 23.2278 31.3475C23.2278 33.2709 21.6684 34.8314 19.7439 34.8314H17.4214C15.498 34.8293 13.9396 33.2699 13.9375 31.3475V30.1862H9.29234V31.3475C9.29752 33.2947 10.0036 35.1756 11.281 36.6459C12.5585 38.1162 14.3211 39.0794 16.2487 39.3573H16.2487Z" fill="#8447E9"/>
<path d="M16.2594 141.675V127.74H27.8722C28.4881 127.74 29.0792 127.495 29.5146 127.06C29.9501 126.624 30.1948 126.033 30.1948 125.417V109.159H40.4866C48.9153 116.355 59.5546 120.446 70.6323 120.754C81.7101 121.061 92.5588 117.563 101.373 110.844L94.746 104.218C83.9023 111.85 69.9494 113.524 57.6087 108.671C45.269 103.817 36.1921 93.0889 33.4528 80.1151C30.7124 67.1419 34.6753 53.6584 43.9997 44.2306C53.3242 34.8023 66.762 30.6901 79.7647 33.2874C92.769 35.8837 103.597 44.8401 108.586 57.1261C113.575 69.4129 112.056 83.3827 104.544 94.3112L111.171 100.938C116.99 93.1407 120.321 83.7694 120.732 74.0491C121.141 64.3285 118.61 54.7106 113.469 46.4515H120.774C121.39 46.4515 121.981 46.2068 122.417 45.7714C122.852 45.3359 123.097 44.7449 123.097 44.129V30.1935H134.71C135.326 30.1935 135.917 29.9488 136.352 29.5133C136.788 29.0778 137.032 28.4868 137.032 27.8709V13.9355H144L134.71 0L125.419 13.9355H132.387V25.5483H120.774C120.158 25.5483 119.567 25.7931 119.132 26.2285C118.696 26.664 118.452 27.255 118.452 27.8709V41.8064H110.231C104.832 34.9393 97.6862 29.6491 89.5418 26.492C81.3971 23.3357 72.5528 22.4265 63.9364 23.8614C55.319 25.2965 47.247 29.0218 40.5644 34.648C33.8817 40.274 28.8352 47.5942 25.9539 55.8405C23.0715 64.0866 22.4608 72.9559 24.184 81.5195C25.9073 90.0841 29.9023 98.0265 35.7491 104.516H27.8709C27.255 104.516 26.664 104.761 26.2285 105.196C25.793 105.632 25.5483 106.223 25.5483 106.839V123.097H13.9355C13.3196 123.097 12.7285 123.342 12.2931 123.777C11.8576 124.212 11.6129 124.803 11.6129 125.419V139.355H0V144H13.9355C14.5514 144 15.1424 143.755 15.5778 143.32C16.0133 142.884 16.258 142.293 16.258 141.677L16.2594 141.675Z" fill="#8447E9"/>
</svg>
