<svg width="151" height="40" viewBox="0 0 151 40" fill="none" xmlns="http://www.w3.org/2000/svg">
<path d="M27.7915 0.909058C25.3883 0.909058 23.0084 1.39115 20.788 2.32766C18.5676 3.26427 16.5503 4.63697 14.8508 6.36749C13.1514 8.09811 11.8034 10.1525 10.8836 12.4136C9.96399 14.6746 9.49057 17.0981 9.49057 19.5454C9.49057 21.9927 9.96399 24.4162 10.8836 26.6773C11.8034 28.9384 13.1514 30.9927 14.8508 32.7233C16.5503 34.4539 19.1658 35.427 21.3862 36.3636C23.6066 37.3001 25.3883 38.1818 27.7915 38.1818V29.7306C26.5899 29.7306 25.2415 29.1047 24.1314 28.6363C23.0212 28.1681 22.1708 26.9996 21.3212 26.1344C20.4715 25.2691 19.7975 24.2419 19.3376 23.1114C18.8777 21.9808 18.6411 21.2237 18.6411 20C18.6411 18.7762 18.8777 17.11 19.3376 15.9795C19.7975 14.849 20.4715 13.8217 21.3212 12.9565C22.1708 12.0912 23.1796 11.4048 24.2898 10.9366C25.4 10.4682 26.5899 10.2272 27.7915 10.2272V0.909058Z" fill="#0D0E14"/>
<path d="M28.2491 25.4545C31.534 25.4545 34.1969 22.809 34.1969 19.5454C34.1969 16.2819 31.534 13.6364 28.2491 13.6364C24.9641 13.6364 22.3013 16.2819 22.3013 19.5454C22.3013 22.809 24.9641 25.4545 28.2491 25.4545Z" fill="#0D0E14"/>
<path d="M9.49057 20C9.49057 22.3876 9.97583 24.752 10.9185 26.9579C11.8612 29.1638 13.2429 31.1681 14.9848 32.8565C16.7267 34.5448 18.7946 35.8841 21.0705 36.7978C23.3464 37.7115 25.7857 38.1818 28.2491 38.1818C30.7124 38.1818 33.1518 37.7115 35.4277 36.7978C37.7036 35.8841 39.7714 34.5448 41.5134 32.8565C43.2552 31.1681 44.6369 29.1638 45.5797 26.9579C46.5223 24.752 47.0076 22.3876 47.0076 20H37.6283C37.6283 21.1939 37.3857 22.376 36.9143 23.479C36.443 24.5819 35.7522 25.5841 34.8812 26.4283C34.0103 27.2724 32.9763 27.942 31.8384 28.3989C30.7004 28.8558 29.4808 29.0909 28.2491 29.0909C27.0173 29.0909 25.7977 28.8558 24.6598 28.3989C23.5218 27.942 22.4879 27.2724 21.6169 26.4283C20.746 25.5841 20.0551 24.5819 19.5838 23.479C19.1124 22.376 18.8698 21.1939 18.8698 20H9.49057Z" fill="#0D0E14"/>
<path d="M34.1969 20C34.1969 18.3123 33.5702 16.6937 32.4549 15.5003C31.3394 14.3068 29.8266 13.6364 28.2491 13.6364C26.6717 13.6364 25.1589 14.3068 24.0434 15.5003C22.9279 16.6937 22.3013 18.3123 22.3013 20H28.2491H34.1969Z" fill="#0D0E14"/>
<path d="M57.0731 12.7273H54.328V25.4546H57.0731V12.7273Z" fill="#0D0E14"/>
<path d="M57.9882 20.9091C57.9882 23.7196 60.1561 25.4546 63.0209 25.4546C65.8857 25.4546 68.0537 23.7196 68.0537 20.9091C68.0537 18.0986 65.8857 16.3636 63.0209 16.3636C60.1561 16.3636 57.9882 18.0986 57.9882 20.9091ZM60.4271 20.9091C60.4271 19.2436 61.5111 18.272 63.0209 18.272C64.5308 18.272 65.6147 19.2436 65.6147 20.9091C65.6147 22.5746 64.5308 23.5462 63.0209 23.5462C61.5111 23.5462 60.4271 22.5746 60.4271 20.9091Z" fill="#0D0E14"/>
<path d="M75.9456 16.6098V17.7875H75.7703C75.2444 17.0317 74.4029 16.3636 72.8954 16.3636C70.8269 16.3636 68.9688 18.1216 68.9688 20.8287C68.9688 23.5359 70.8269 25.2938 72.8954 25.2938C74.4029 25.2938 75.2444 24.6082 75.7352 23.9227H75.9105V24.7665C75.9105 26.4541 74.9288 27.2275 73.4914 27.2275C72.054 27.2275 71.3177 26.4541 71.0197 25.452L69.0389 26.3134C69.4946 27.6318 70.8269 29.0909 73.5265 29.0909C76.2962 29.0909 78.1192 27.6318 78.1192 24.8191V16.6098H75.9456ZM73.5615 23.3953C72.1942 23.3953 71.1775 22.4109 71.1775 20.8287C71.1775 19.2466 72.1942 18.2622 73.5615 18.2622C74.9288 18.2622 75.9456 19.2466 75.9456 20.8287C75.9456 22.4109 74.9288 23.3953 73.5615 23.3953Z" fill="#0D0E14"/>
<path d="M79.9493 20.9091C79.9493 23.7196 82.1173 25.4546 84.9822 25.4546C87.847 25.4546 90.0149 23.7196 90.0149 20.9091C90.0149 18.0986 87.847 16.3636 84.9822 16.3636C82.1173 16.3636 79.9493 18.0986 79.9493 20.9091ZM82.3883 20.9091C82.3883 19.2436 83.4723 18.272 84.9822 18.272C86.492 18.272 87.576 19.2436 87.576 20.9091C87.576 22.5746 86.492 23.5462 84.9822 23.5462C83.4723 23.5462 82.3883 22.5746 82.3883 20.9091Z" fill="#0D0E14"/>
<path d="M91.845 13.4336C91.845 14.3915 92.4466 15.0489 93.218 15.0489C93.9885 15.0489 94.5901 14.3915 94.5901 13.4336C94.5901 12.4757 93.9885 11.8182 93.218 11.8182C92.4466 11.8182 91.845 12.4757 91.845 13.4336ZM94.1888 16.1383H92.2463V25.4546H94.1888V16.1383Z" fill="#0D0E14"/>
<path d="M96.4202 29.0909H98.6294V24.3585H98.8041C99.2949 25.0756 100.136 25.7567 101.644 25.7567C103.712 25.7567 105.571 23.9642 105.571 21.0602C105.571 18.1562 103.712 16.3636 101.644 16.3636C100.136 16.3636 99.2949 17.0448 98.7696 17.8157H98.5938V16.6146H96.4202V29.0909ZM100.978 23.8208C99.611 23.8208 98.5938 22.8169 98.5938 21.0602C98.5938 19.3035 99.611 18.2996 100.978 18.2996C102.345 18.2996 103.362 19.3035 103.362 21.0602C103.362 22.8169 102.345 23.8208 100.978 23.8208Z" fill="#0D0E14"/>
<path d="M107.737 19.0181C107.737 20.7183 109.264 21.3429 111.202 21.6899L111.686 21.7766C112.841 21.9847 113.363 22.245 113.363 22.8002C113.363 23.3554 112.841 23.789 111.761 23.789C110.68 23.789 109.805 23.3727 109.562 22.1235L107.401 22.644C107.718 24.4483 109.338 25.4546 111.761 25.4546C114.108 25.4546 115.636 24.431 115.636 22.6267C115.636 20.8223 114.071 20.3366 111.985 19.955L111.5 19.8682C110.531 19.6947 110.009 19.4518 110.009 18.8793C110.009 18.3588 110.494 18.0292 111.388 18.0292C112.283 18.0292 112.916 18.3761 113.139 19.313L115.264 18.7058C114.816 17.3179 113.457 16.3636 111.388 16.3636C109.189 16.3636 107.737 17.3179 107.737 19.0181Z" fill="#0D0E14"/>
<path d="M125.702 25.3103V16.3636H123.3V20.9813C123.3 22.6407 122.443 23.6147 120.974 23.6147C119.678 23.6147 118.954 22.9474 118.954 21.5945V16.3636H116.551V21.7028C116.551 23.9214 118.02 25.4546 120.231 25.4546C121.965 25.4546 122.767 24.7331 123.148 23.9755H123.338V25.3103H125.702Z" fill="#0D0E14"/>
<path d="M127.532 16.5079V25.4546H129.941V20.1155C129.941 18.8889 130.553 18.2035 131.661 18.2035C132.617 18.2035 133.19 18.7085 133.19 19.6826V25.4546H135.599V20.1155C135.599 18.8889 136.211 18.2035 137.319 18.2035C138.276 18.2035 138.848 18.7085 138.848 19.6826V25.4546H141.258V19.5743C141.258 17.4098 139.843 16.3636 138.084 16.3636C136.536 16.3636 135.829 17.013 135.37 17.7706H135.178C134.738 16.9229 133.955 16.3636 132.578 16.3636C131.202 16.3636 130.456 16.9408 130.094 17.6263H129.902V16.5079H127.532Z" fill="#0D0E14"/>
</svg>
