<svg width="15" height="420" viewBox="0 0 15 420" fill="none" xmlns="http://www.w3.org/2000/svg">
<path d="M0.00148335 100.15C-0.0434527 96.2375 0.936829 92.3833 2.84066 88.979C3.78312 87.4218 4.8166 85.9233 5.93415 84.4896C6.44263 83.823 6.95111 83.1361 7.43831 82.3413C8.71185 80.7961 9.41071 78.8456 9.41071 76.8318C9.41071 74.8166 8.71303 72.8674 7.43949 71.321C6.95229 70.6341 6.44382 69.9892 5.93534 69.3226C5.10876 68.2485 4.28222 67.1744 3.51948 65.9923C1.23135 62.2737 0.0170482 57.9809 0.0170484 53.598C0.0170486 49.215 1.23029 44.9213 3.5183 41.2025C4.28101 40.0421 5.0863 39.0542 5.91288 37.9154C6.46392 37.2069 7.01496 36.4757 7.54472 35.7672C8.7012 34.2591 9.3291 32.4046 9.3291 30.4936C9.3291 28.5839 8.7012 26.7281 7.54472 25.22C6.99368 24.4036 6.40007 23.652 5.80762 22.8788C5.21402 22.1056 4.17578 20.7306 3.41305 19.5917C-0.116664 13.7044 -0.937333 6.55021 1.1663 -6.01598e-07L6.35733 1.69746C4.74795 6.7252 5.37467 12.2121 8.07433 16.7338C8.73181 17.7647 9.47323 18.689 10.1934 19.6336C10.9135 20.5782 11.5071 21.3311 12.122 22.2326C13.9123 24.6769 14.8796 27.6427 14.8796 30.6876C14.8796 33.7313 13.9123 36.6959 12.122 39.1402C11.5497 39.9566 10.9348 40.7514 10.3424 41.5246C9.74876 42.2978 8.8808 43.4151 8.22333 44.446C6.52171 47.262 5.62181 50.5 5.62181 53.8012C5.62181 57.1039 6.52171 60.3416 8.22333 63.1576C8.9009 64.2101 9.6435 65.1559 10.3424 66.1006C11.0412 67.0452 11.4444 67.5187 11.9742 68.2488C13.891 70.7447 14.9293 73.8182 14.9293 76.9807C14.9293 80.1444 13.8898 83.2166 11.973 85.7138C11.4433 86.4654 10.8922 87.1751 10.3625 87.862C9.36797 89.1231 8.44918 90.443 7.60841 91.8144C5.10743 96.4512 4.84845 101.997 6.90955 106.852C7.99389 109.001 9.28638 111.038 10.7656 112.931L11.9528 114.564C13.8626 117.075 14.8996 120.157 14.8996 123.329C14.8996 126.5 13.8626 129.582 11.9528 132.094L10.4061 134.242C9.49441 135.424 8.64773 136.561 7.86375 137.787C6.28156 140.352 5.53895 143.36 5.74353 146.379L0.29821 146.572C0.0758996 142.431 1.13541 138.324 3.32783 134.822C4.23953 133.404 5.21392 132.115 6.14572 130.891L7.60729 128.936C8.82761 127.361 9.4922 125.416 9.4922 123.414C9.4922 121.412 8.82882 119.468 7.60847 117.894L6.46382 116.305C4.76811 114.125 3.29132 111.779 2.05653 109.301C0.71439 106.441 0.0121386 103.316 0.00148335 100.15Z" fill="#8447E9" fill-opacity="0.75"/>
<path d="M0.00147738 236.864C-0.0434586 232.951 0.936823 229.097 2.84066 225.693C3.78312 224.136 4.8166 222.637 5.93415 221.203C6.44263 220.537 6.9511 219.85 7.4383 219.055C8.71184 217.51 9.4107 215.559 9.4107 213.546C9.4107 211.53 8.71303 209.581 7.43948 208.035C6.95229 207.348 6.44381 206.703 5.93533 206.036C5.10876 204.962 4.28221 203.888 3.51948 202.706C1.23134 198.987 0.0170422 194.695 0.0170424 190.312C0.0170426 185.929 1.23028 181.635 3.5183 177.916C4.281 176.756 5.08629 175.768 5.91287 174.629C6.46391 173.921 7.01495 173.189 7.54471 172.481C8.70119 170.973 9.32909 169.118 9.32909 167.207C9.32909 165.298 8.70119 163.442 7.54471 161.934C6.99367 161.117 6.40007 160.366 5.80761 159.593C5.21401 158.819 4.17577 157.444 3.41304 156.305C-0.11667 150.418 -1.38408 143.329 2.96614 136.714L7.54471 137.816C5.14125 143.329 5.37467 148.926 8.07432 153.448C8.7318 154.478 9.47322 155.403 10.1934 156.347C10.9135 157.292 11.5071 158.045 12.122 158.946C13.9123 161.391 14.8796 164.356 14.8796 167.401C14.8796 170.445 13.9123 173.41 12.122 175.854C11.5497 176.67 10.9348 177.465 10.3424 178.238C9.74875 179.012 8.8808 180.129 8.22332 181.16C6.5217 183.976 5.6218 187.214 5.6218 190.515C5.6218 193.818 6.5217 197.055 8.22332 199.871C8.9009 200.924 9.6435 201.87 10.3424 202.814C11.0412 203.759 11.4444 204.232 11.9742 204.963C13.891 207.458 14.9293 210.532 14.9293 213.694C14.9293 216.858 13.8898 219.93 11.973 222.428C11.4433 223.179 10.8922 223.889 10.3625 224.576C9.36796 225.837 8.44917 227.157 7.6084 228.528C5.10742 233.165 4.84845 238.711 6.90954 243.566C7.99388 245.715 9.28638 247.752 10.7656 249.645L11.9528 251.278C13.8626 253.789 14.8996 256.871 14.8996 260.043C14.8996 263.214 13.8626 266.296 11.9528 268.807L10.4061 270.956C9.49441 272.138 8.64773 273.275 7.86374 274.5C6.28155 277.066 5.53895 280.073 5.74352 283.093L0.298204 283.286C0.0758936 279.144 1.1354 275.037 3.32782 271.536C4.23952 270.118 5.21392 268.829 6.14572 267.605L7.60728 265.65C8.8276 264.074 9.49219 262.13 9.49219 260.128C9.49219 258.126 8.82882 256.182 7.60846 254.608L6.46382 253.018C4.7681 250.839 3.29132 248.493 2.05652 246.015C0.714384 243.155 0.0121326 240.03 0.00147738 236.864Z" fill="#8447E9" fill-opacity="0.75"/>
<path d="M0.0014714 373.578C-0.0434646 369.665 0.936817 365.811 2.84065 362.407C3.78311 360.849 4.81659 359.351 5.93414 357.917C6.44262 357.251 6.9511 356.564 7.4383 355.769C8.71184 354.224 9.4107 352.273 9.4107 350.259C9.4107 348.244 8.71302 346.295 7.43948 344.749C6.95228 344.062 6.4438 343.417 5.93533 342.75C5.10875 341.676 4.2822 340.602 3.51947 339.42C1.23134 335.701 0.0170363 331.408 0.0170364 327.025C0.0170366 322.643 1.23027 318.349 3.51829 314.63C4.28099 313.47 5.08629 312.482 5.91286 311.343C6.46391 310.634 7.01494 309.903 7.5447 309.195C8.70118 307.687 9.32909 305.832 9.32909 303.921C9.32909 302.011 8.70118 300.156 7.5447 298.648C6.99366 297.831 6.40006 297.079 5.80761 296.306C5.21401 295.533 4.17577 294.158 3.41303 293.019C-0.116676 287.132 -1.38409 280.043 2.96614 273.428L7.54471 274.53C5.14125 280.043 5.37466 285.64 8.07432 290.161C8.73179 291.192 9.47321 292.116 10.1934 293.061C10.9135 294.006 11.5071 294.759 12.122 295.66C13.9123 298.104 14.8796 301.07 14.8796 304.115C14.8796 307.159 13.9123 310.123 12.122 312.568C11.5497 313.384 10.9348 314.179 10.3424 314.952C9.74875 315.725 8.88079 316.843 8.22331 317.874C6.5217 320.69 5.6218 323.927 5.6218 327.229C5.6218 330.531 6.5217 333.769 8.22331 336.585C8.90089 337.638 9.64349 338.583 10.3424 339.528C11.0412 340.473 11.4444 340.946 11.9742 341.676C13.891 344.172 14.9292 347.246 14.9292 350.408C14.9292 353.572 13.8898 356.644 11.973 359.141C11.4432 359.893 10.8922 360.603 10.3624 361.29C9.36795 362.551 8.44917 363.871 7.60839 365.242C5.10742 369.879 4.84844 375.424 6.90954 380.279C7.99388 382.429 9.28637 384.466 10.7656 386.359L11.9528 387.991C13.8626 390.503 14.8996 393.585 14.8996 396.757C14.8996 399.927 13.8626 403.01 11.9528 405.521L10.4061 407.669C9.4944 408.851 8.64772 409.989 7.86374 411.214C6.28154 413.78 5.53894 416.787 5.74352 419.807L0.298198 420C0.0758876 415.858 1.1354 411.751 3.32782 408.25C4.23952 406.831 5.21391 405.543 6.14571 404.319L7.60728 402.363C8.8276 400.788 9.49219 398.844 9.49219 396.842C9.49219 394.84 8.82881 392.896 7.60846 391.322L6.46381 389.732C4.7681 387.553 3.29131 385.207 2.05652 382.729C0.714378 379.869 0.0121267 376.744 0.0014714 373.578Z" fill="#8447E9" fill-opacity="0.75"/>
</svg>
