<svg width="88" height="24" viewBox="0 0 88 24" fill="none" xmlns="http://www.w3.org/2000/svg">
<path d="M29.472 0.375999H33.76L25.44 23.16H23.392L16.96 7.416L10.592 23.16H8.576L0.16 0.375999H4.512L9.856 15.8L15.968 0.279999H18.048L24.128 15.864L29.472 0.375999ZM36.8313 23.352C34.2499 23.352 32.1806 22.5307 30.6233 20.888C29.0873 19.2453 28.3193 17.0373 28.3193 14.264C28.3193 11.4907 29.0873 9.29333 30.6233 7.672C32.1593 6.02933 34.1753 5.208 36.6713 5.208C39.0606 5.208 40.9273 5.89067 42.2713 7.256V5.592H46.0473V23H42.3353V21.176C41.0979 22.6267 39.2633 23.352 36.8313 23.352ZM37.5673 19.992C38.5486 19.992 39.4659 19.7787 40.3193 19.352C41.1726 18.9253 41.8446 18.2853 42.3353 17.432V11.064C41.8233 10.2747 41.1193 9.66667 40.2233 9.24C39.3273 8.792 38.3993 8.568 37.4393 8.568C35.8819 8.568 34.6233 9.06933 33.6633 10.072C32.7246 11.0747 32.2553 12.4613 32.2553 14.232C32.2553 16.024 32.7353 17.432 33.6953 18.456C34.6553 19.48 35.9459 19.992 37.5673 19.992ZM57.861 5.592H62.021L53.797 23.16H51.589L43.365 5.592H47.685L50.981 13.336L52.709 17.72L54.501 13.4L57.861 5.592ZM75.6012 14.328C75.6012 14.84 75.5906 15.2027 75.5693 15.416H61.5212C61.7559 16.9093 62.3639 18.072 63.3452 18.904C64.3266 19.736 65.5959 20.152 67.1532 20.152C69.4359 20.152 71.2172 19.352 72.4972 17.752L74.9613 19.8C73.2119 22.168 70.5239 23.352 66.8972 23.352C64.0386 23.352 61.7772 22.5307 60.1132 20.888C58.4706 19.224 57.6492 17.0053 57.6492 14.232C57.6492 11.5013 58.4812 9.304 60.1452 7.64C61.8092 5.976 63.9746 5.144 66.6412 5.144C69.5426 5.144 71.7612 5.98667 73.2972 7.672C74.8332 9.336 75.6012 11.5547 75.6012 14.328ZM66.6412 8.312C65.3399 8.312 64.2306 8.68533 63.3132 9.432C62.3959 10.1573 61.8092 11.2027 61.5532 12.568H71.7933C71.6652 11.3093 71.1639 10.2853 70.2892 9.496C69.4359 8.70667 68.2199 8.312 66.6412 8.312ZM80.0478 23.416C77.3384 23.416 74.8958 22.8827 72.7198 21.816L73.9678 18.776C75.7811 19.8427 77.7758 20.376 79.9518 20.376C82.2131 20.376 83.3438 19.64 83.3438 18.168C83.3438 17.5493 83.0451 17.08 82.4478 16.76C81.8504 16.44 80.7838 16.1093 79.2478 15.768C77.0931 15.32 75.5038 14.7013 74.4798 13.912C73.4771 13.1013 72.9758 11.9387 72.9758 10.424C72.9758 8.73867 73.5838 7.45867 74.7998 6.584C76.0371 5.688 77.7011 5.24 79.7918 5.24C81.9464 5.24 84.1758 5.69867 86.4798 6.616L85.1998 9.656C83.4931 8.78133 81.6691 8.344 79.7278 8.344C77.7651 8.344 76.7838 8.952 76.7838 10.168C76.7838 10.808 77.0611 11.288 77.6158 11.608C78.1704 11.928 79.2371 12.2693 80.8158 12.632C83.0344 13.144 84.6558 13.784 85.6798 14.552C86.7251 15.32 87.2478 16.4187 87.2478 17.848C87.2478 19.768 86.6504 21.176 85.4558 22.072C84.2611 22.968 82.4584 23.416 80.0478 23.416Z" fill="#8447E9"/>
</svg>
